<?xml version="1.0" standalone="no"?>
<!DOCTYPE svg PUBLIC "-//W3C//DTD SVG 20010904//EN"
 "http://www.w3.org/TR/2001/REC-SVG-20010904/DTD/svg10.dtd">
<svg version="1.0" xmlns="http://www.w3.org/2000/svg"
 width="2048.000000pt" height="2048.000000pt" viewBox="0 0 2048.000000 2048.000000"
 preserveAspectRatio="xMidYMid meet">

<g transform="translate(0.000000,2048.000000) scale(0.100000,-0.100000)"
fill="#000000" stroke="none">
<path d="M9710 20430 c-63 -5 -185 -14 -270 -20 -922 -66 -1878 -279 -2810
-625 -84 -31 -323 -128 -410 -166 -52 -22 -122 -52 -155 -66 -77 -32 -550
-265 -680 -335 -188 -101 -395 -223 -600 -353 -320 -202 -683 -462 -970 -694
-71 -57 -132 -107 -135 -111 -3 -3 -48 -41 -100 -85 -232 -196 -539 -490 -803
-770 -450 -477 -845 -987 -1222 -1580 -342 -538 -728 -1332 -947 -1950 -27
-77 -55 -156 -63 -175 -43 -113 -166 -533 -225 -765 -163 -644 -250 -1197
-302 -1915 -17 -231 -17 -1021 0 -1250 67 -919 203 -1657 452 -2448 412 -1312
1086 -2528 1979 -3572 181 -211 281 -320 511 -553 113 -115 206 -210 208 -212
7 -6 -31 -176 -38 -173 -4 2 -26 26 -48 53 -74 95 -246 153 -374 126 -33 -7
-75 -19 -93 -28 -36 -17 -36 -15 16 -73 15 -16 37 -47 50 -69 12 -23 26 -41
31 -41 4 0 8 -8 8 -18 0 -10 6 -27 14 -38 8 -11 27 -60 42 -109 25 -80 28
-105 29 -226 l0 -137 50 52 c108 111 223 169 371 188 244 30 485 -58 629 -229
27 -32 52 -60 55 -63 17 -16 90 -185 104 -240 27 -115 31 -142 34 -237 2 -51
3 -53 30 -53 25 0 123 -20 167 -34 18 -6 67 23 147 89 10 8 44 28 77 45 165
83 347 93 511 28 60 -24 75 -34 131 -90 20 -20 39 -35 42 -32 2 3 2 25 -1 49
-5 51 17 235 28 235 5 0 11 18 15 40 4 22 11 40 16 40 5 0 9 4 9 10 0 16 80
145 111 178 16 17 29 36 29 41 0 6 4 11 9 11 6 0 25 13 43 30 18 16 38 30 45
30 7 0 13 4 13 8 0 27 273 124 301 106 5 -3 9 0 9 6 0 6 11 5 29 -5 22 -11 32
-12 37 -3 4 6 3 8 -4 4 -6 -3 -13 -2 -17 4 -12 19 -131 78 -199 99 -94 29
-230 29 -306 0 -30 -11 -61 -26 -68 -31 -22 -19 -21 -5 5 72 90 266 -50 615
-297 740 -94 47 -163 63 -280 62 -89 -1 -118 -5 -193 -30 -131 -45 -228 -110
-306 -207 -23 -28 -24 -29 -16 -5 5 14 9 59 9 100 1 64 -3 83 -29 134 -41 81
-93 137 -162 173 -70 37 -106 46 -192 45 -84 -1 -178 -30 -265 -83 l-68 -41
-75 73 c-178 176 -479 508 -659 729 -1429 1749 -2194 3892 -2194 6150 0 1828
499 3579 1460 5125 551 887 1255 1692 2070 2366 125 104 404 320 461 358 20
13 41 37 47 53 7 20 17 28 35 28 16 0 95 47 209 123 159 108 417 271 535 339
498 286 1082 562 1533 723 367 131 643 216 954 295 771 194 1444 284 2231 297
l360 6 39 81 c31 66 56 98 131 172 78 78 106 99 186 137 52 25 114 52 139 59
l45 13 -60 7 c-92 11 -1065 18 -1195 8z"/>
<path d="M12100 20269 c0 -5 6 -9 13 -9 6 0 47 -20 91 -45 43 -25 80 -45 81
-45 7 0 11 61 4 66 -18 11 -189 41 -189 33z"/>
<path d="M20402 18217 c-19 -75 -108 -238 -172 -315 -147 -176 -437 -344 -685
-398 -112 -24 -375 -24 -510 0 -290 52 -548 171 -761 352 -35 30 -64 52 -64
49 0 -13 66 -135 109 -200 25 -38 80 -105 123 -147 43 -43 78 -81 78 -86 0 -4
-21 -41 -46 -82 -156 -256 -474 -429 -863 -471 -252 -27 -431 26 -650 194 -61
46 -281 255 -281 267 0 4 39 17 87 30 205 54 419 207 540 386 l26 38 -34 -22
c-121 -74 -329 -155 -484 -187 -192 -39 -434 -40 -628 0 -40 8 -100 15 -135
16 -54 2 -66 -1 -85 -20 l-22 -22 33 -28 c58 -49 192 -119 284 -148 48 -15 88
-31 88 -34 0 -7 -104 -93 -185 -154 -205 -155 -401 -257 -580 -302 -151 -38
-476 -18 -713 43 -90 23 -116 25 -382 28 -157 1 -294 6 -305 10 -11 4 9 -20
45 -54 193 -184 506 -318 865 -372 136 -20 494 -17 625 5 311 53 554 150 746
298 28 21 55 39 60 39 5 0 29 -21 54 -46 90 -92 252 -187 415 -242 137 -47
249 -64 440 -68 l170 -3 98 -118 c657 -787 1182 -1670 1568 -2635 314 -785
534 -1675 623 -2518 44 -419 51 -547 51 -1050 0 -502 -5 -606 -46 -1015 -40
-399 -112 -829 -204 -1220 -48 -203 -57 -240 -81 -325 -13 -47 -31 -107 -38
-135 -107 -379 -273 -836 -458 -1258 -75 -172 -332 -682 -416 -827 l-61 -104
-238 2 c-131 2 -348 -1 -483 -7 -380 -16 -483 -17 -487 -5 -2 6 41 11 119 13
68 1 134 4 148 6 14 1 99 6 190 9 172 7 223 13 216 24 -2 4 -84 5 -181 2 -127
-4 -179 -2 -186 7 -6 6 -6 13 -2 16 4 3 97 8 205 12 127 5 195 11 192 17 -6
10 -567 6 -1181 -8 -190 -5 -263 -3 -263 5 0 7 28 11 79 11 44 0 82 3 84 8 3
4 -44 5 -104 4 -61 -2 -118 -1 -127 3 -41 17 41 25 310 31 511 12 414 22 -190
21 -325 -1 -592 1 -592 6 0 4 5 7 12 7 9 0 9 3 1 11 -8 8 -16 7 -31 -2 -16
-10 -28 -10 -62 0 -37 11 -42 10 -58 -8 -16 -19 -38 -20 -439 -32 -396 -12
-423 -11 -448 5 -24 16 -28 16 -44 2 -19 -18 -30 -18 -270 -16 -80 1 -162 -2
-184 -5 -37 -7 -39 -6 -32 15 7 21 5 22 -21 15 -34 -9 -91 -14 -189 -18 -38
-1 -76 -6 -84 -11 -23 -15 -273 -24 -431 -16 -93 5 -147 4 -151 -3 -4 -5 -18
-7 -32 -3 -14 3 -71 1 -127 -4 -73 -8 -106 -8 -115 0 -9 8 -15 8 -20 0 -4 -6
-21 -10 -38 -9 -42 1 -216 -18 -244 -26 -13 -4 -23 -3 -23 1 0 5 -26 9 -57 9
-32 0 -66 4 -75 9 -13 6 -18 4 -18 -8 0 -23 -185 -24 -211 0 -16 14 -20 14
-48 -7 -26 -19 -33 -20 -46 -9 -14 12 -18 11 -25 -1 -7 -11 -41 -14 -157 -16
-81 0 -221 -4 -309 -9 -155 -7 -163 -6 -197 14 -19 13 -49 21 -68 21 -19 -1
-26 -3 -16 -6 20 -5 23 -31 4 -39 -23 -8 -70 15 -63 31 8 21 -28 20 -64 -2
-26 -15 -29 -15 -46 1 -16 16 -31 17 -163 11 -80 -4 -157 -9 -171 -10 -14 -2
-80 -4 -148 -4 -116 -1 -123 -2 -117 -20 4 -15 -1 -21 -26 -30 -45 -16 -108
-14 -125 4 -14 13 -13 16 8 25 27 11 -463 2 -527 -10 -22 -4 -32 -8 -22 -9 22
-1 22 -30 1 -38 -10 -4 -23 2 -33 15 -21 28 -64 43 -101 36 -36 -8 -40 -24 -5
-24 16 0 25 -6 25 -15 0 -10 -10 -15 -34 -15 -28 0 -35 4 -38 23 -3 21 -7 22
-103 22 -203 -1 -655 -18 -655 -25 0 -4 18 -10 41 -13 43 -6 57 -13 46 -24
-12 -12 -307 -16 -307 -4 0 7 25 11 64 11 36 0 78 7 97 15 31 15 14 15 -226
10 -143 -3 -302 -6 -353 -5 -51 1 -152 -3 -225 -9 -132 -10 -565 -24 -837 -26
-328 -3 -930 -32 -930 -45 0 -14 18 -21 25 -10 9 15 41 12 56 -6 10 -13 10
-17 -2 -25 -16 -10 -109 -12 -134 -3 -14 6 -14 8 1 25 10 11 14 22 11 25 -3 4
-111 1 -239 -5 -128 -6 -329 -13 -446 -17 -116 -3 -212 -10 -212 -14 0 -11 26
-20 56 -20 14 0 24 -6 24 -14 0 -10 -23 -15 -85 -20 -47 -4 -89 -4 -95 -1 -15
9 0 35 21 35 10 0 19 5 19 12 0 8 -27 9 -98 5 -53 -4 -121 -7 -149 -7 -45 0
-53 -3 -53 -19 0 -40 -20 -43 -303 -52 -277 -8 -407 -24 -453 -54 -13 -8 -31
-29 -39 -45 -15 -29 -15 -32 11 -65 32 -42 38 -44 30 -9 -5 19 -3 25 6 21 7
-2 13 -14 12 -26 0 -11 3 -21 7 -21 5 0 16 -14 24 -30 9 -17 38 -55 65 -85 27
-30 58 -72 69 -93 24 -47 84 -102 111 -102 26 0 52 -42 45 -72 -7 -28 32 -71
61 -66 12 2 20 -5 24 -22 3 -14 14 -27 25 -29 26 -5 48 -29 41 -46 -4 -11 4
-14 37 -13 43 0 127 -11 127 -17 0 -2 -4 -15 -10 -29 -8 -21 -16 -26 -43 -26
-18 0 -57 -7 -85 -15 -29 -9 -80 -15 -117 -13 -40 1 -69 -2 -77 -10 -7 -7 -36
-12 -64 -12 -29 0 -55 -4 -59 -9 -3 -6 22 -8 65 -4 44 4 70 2 70 -4 0 -6 -33
-13 -72 -16 -158 -11 -454 -39 -468 -44 -12 -4 -10 -7 6 -13 12 -5 97 -2 190
5 93 8 273 19 399 25 127 6 282 15 345 21 120 10 298 3 283 -12 -9 -9 -292
-34 -668 -60 -88 -6 -207 -17 -265 -25 -58 -8 -163 -22 -235 -30 -71 -8 -155
-19 -186 -24 -30 -6 -76 -10 -102 -10 -27 0 -47 -5 -47 -11 0 -7 11 -8 31 -4
17 4 131 4 255 0 l224 -8 -25 -29 c-29 -35 -31 -59 -8 -99 22 -36 36 -38 27
-3 -5 19 -4 25 5 20 6 -4 11 -13 11 -21 0 -20 37 -82 81 -135 20 -25 48 -67
62 -95 31 -60 71 -105 95 -105 28 0 42 -21 42 -62 0 -44 25 -78 57 -78 18 0
23 -6 23 -25 0 -16 6 -25 16 -25 22 0 47 -28 40 -45 -4 -12 4 -15 38 -15 24 0
58 -3 75 -6 26 -6 30 -10 25 -30 -10 -38 19 -68 68 -70 153 -8 167 -11 186
-34 13 -17 24 -21 40 -16 12 4 20 11 17 16 -10 17 13 20 41 5 21 -10 45 -13
84 -9 59 7 93 24 46 24 -31 0 -32 25 0 25 10 1 24 4 30 7 6 4 43 4 82 1 55 -4
72 -10 72 -21 0 -12 11 -14 68 -9 37 4 94 7 126 7 33 0 56 3 53 7 -4 3 -39 5
-78 4 -48 -2 -69 1 -64 8 3 6 33 11 65 11 33 0 126 5 208 11 82 6 162 9 178 7
l29 -4 -25 -12 c-20 -8 11 -10 138 -8 105 2 167 7 175 15 8 8 7 11 -6 11 -9 0
-17 4 -17 9 0 5 30 12 67 16 60 6 68 5 82 -13 12 -15 23 -19 43 -15 16 3 28
12 28 19 0 19 2 18 57 -12 70 -39 73 -42 73 -88 1 -46 16 -72 45 -77 11 -3 21
-13 23 -24 2 -12 13 -25 25 -30 12 -6 23 -20 25 -32 3 -17 10 -23 30 -23 15 0
44 -3 65 -7 35 -5 38 -8 32 -31 -3 -14 -1 -38 6 -54 10 -26 15 -28 45 -22 21
4 40 2 48 -5 8 -7 37 -12 65 -13 40 0 54 -4 62 -19 12 -23 45 -25 57 -3 8 15
11 15 34 0 20 -13 38 -15 82 -10 53 6 79 24 35 24 -12 0 -19 5 -16 13 2 6 12
12 23 12 10 0 24 3 31 8 6 4 23 3 38 -3 14 -5 42 -10 61 -10 24 0 34 -5 34
-15 0 -12 19 -15 115 -15 64 0 115 4 115 9 0 5 -17 9 -38 9 -88 -2 -100 6 -22
13 124 10 370 10 343 -1 -13 -5 -23 -12 -23 -14 0 -3 70 -5 155 -5 126 1 155
3 155 15 0 8 -4 14 -10 14 -5 0 -10 5 -10 10 0 6 28 10 64 10 56 0 66 -3 71
-20 9 -27 55 -27 62 0 6 24 21 26 29 5 4 -8 15 -15 26 -15 13 0 18 5 15 14 -4
10 5 16 27 20 37 7 66 0 66 -17 0 -6 6 -2 14 9 12 15 28 19 88 21 40 1 166 4
280 7 188 5 208 4 208 -11 0 -14 10 -15 77 -9 42 3 94 7 117 7 23 1 33 3 24 6
-25 6 -22 20 4 27 40 10 65 6 92 -15 28 -22 56 -20 56 5 0 11 18 15 77 18 64
2 80 0 92 -14 20 -23 27 -23 34 2 3 12 14 20 27 20 11 0 19 4 15 9 -3 5 7 12
22 14 20 3 16 4 -14 6 -31 1 -43 5 -43 16 0 8 9 15 19 15 25 0 36 16 15 24
-30 12 -2 26 53 26 47 0 56 -3 60 -20 6 -22 30 -21 25 0 -4 17 16 30 46 30 28
0 29 -20 2 -27 -37 -10 -15 -28 41 -33 82 -9 37 -20 -63 -17 -68 2 -89 -1 -93
-12 -9 -22 3 -26 39 -13 27 10 45 10 80 1 50 -12 59 -25 24 -32 -13 -3 26 -5
85 -4 102 0 110 2 124 24 13 20 24 23 74 23 32 0 61 -5 64 -10 3 -6 -3 -10
-14 -10 -12 0 -21 -5 -21 -11 0 -8 23 -10 78 -6 42 4 150 10 240 13 187 8 272
21 157 24 l-70 2 43 14 c26 8 111 15 208 18 90 3 167 7 172 10 4 2 80 7 167
11 88 3 168 9 178 11 13 4 20 -1 24 -17 6 -22 8 -22 131 -16 107 6 129 10 147
27 18 17 35 20 103 20 83 0 113 -15 45 -23 -23 -3 -17 -4 17 -3 50 1 55 3 52
22 -3 20 4 21 215 32 120 7 268 17 328 22 61 5 213 11 338 14 125 3 232 8 237
11 5 3 136 8 292 11 156 3 323 11 372 19 48 7 135 13 193 14 58 1 126 6 151
11 25 4 61 6 79 3 19 -3 66 -1 106 5 40 6 146 16 237 22 296 20 340 29 115 23
-320 -9 -301 -11 -289 20 8 21 58 31 84 17 16 -8 25 -8 35 0 9 8 26 8 61 0 51
-12 189 1 227 21 13 7 23 6 32 -1 10 -8 21 -7 43 4 26 13 31 13 51 0 25 -18
107 -16 104 2 -3 17 44 26 67 14 14 -7 26 -8 39 0 11 5 114 17 228 25 114 8
314 24 443 35 129 11 276 20 326 20 50 0 116 5 145 11 80 15 273 38 278 33 10
-10 -345 -352 -559 -540 -417 -364 -909 -728 -1325 -978 -44 -27 -91 -56 -105
-66 -86 -58 -416 -237 -685 -370 -636 -314 -1223 -532 -1889 -700 -592 -149
-1082 -228 -1761 -282 -253 -20 -1097 -17 -1360 5 -748 63 -1443 190 -2066
379 -72 22 -75 24 -68 48 11 39 9 70 -2 35 -6 -16 -10 -49 -10 -73 0 -23 -4
-40 -8 -37 -5 3 -7 -4 -4 -14 3 -11 -2 -34 -10 -53 -8 -18 -21 -50 -27 -71
-15 -47 -35 -88 -41 -82 -3 2 -5 -5 -5 -16 0 -14 5 -18 16 -13 8 3 23 9 33 11
9 3 17 9 17 13 0 5 15 12 33 15 17 4 38 12 45 18 24 19 210 21 282 3 80 -20
174 -66 218 -107 29 -26 32 -32 20 -47 -12 -15 -11 -16 5 -3 12 9 21 11 25 5
4 -6 21 -30 38 -54 57 -82 92 -184 96 -279 3 -65 -7 -60 205 -100 256 -48 465
-81 715 -111 158 -19 226 -20 1217 -20 l1051 0 237 30 c1692 214 3268 831
4673 1830 140 100 175 126 400 302 465 364 989 866 1379 1320 121 142 127 147
166 149 l40 2 -34 6 -33 6 33 41 c25 31 44 43 72 48 21 4 35 10 32 15 -3 5
-15 7 -27 3 -26 -6 -22 -1 128 190 123 155 324 439 470 663 739 1131 1259
2432 1493 3740 50 281 59 341 86 555 58 470 65 613 65 1300 0 674 -7 818 -60
1250 -231 1885 -983 3669 -2167 5144 -57 70 -103 132 -103 136 0 4 29 26 65
49 131 85 261 237 303 353 9 26 21 48 27 48 5 0 33 -7 60 -15 136 -42 276 -59
480 -59 233 0 357 18 559 84 341 111 591 309 712 565 55 117 77 221 78 360 0
129 -14 174 -32 102z m-4092 -12727 c0 -5 -7 -10 -15 -10 -8 0 -15 5 -15 10 0
6 7 10 15 10 8 0 15 -4 15 -10z m40 6 c0 -3 -4 -8 -10 -11 -5 -3 -10 -1 -10 4
0 6 5 11 10 11 6 0 10 -2 10 -4z m-1130 -36 c0 -5 -4 -10 -10 -10 -5 0 -10 5
-10 10 0 6 5 10 10 10 6 0 10 -4 10 -10z m77 4 c-3 -3 -12 -4 -19 -1 -8 3 -5
6 6 6 11 1 17 -2 13 -5z m-259 -11 c-10 -2 -26 -2 -35 0 -10 3 -2 5 17 5 19 0
27 -2 18 -5z m-753 -23 c4 -6 -12 -9 -42 -9 -47 2 -47 2 -13 9 19 4 38 8 42 9
4 0 10 -3 13 -9z m108 3 c-7 -2 -21 -2 -30 0 -10 3 -4 5 12 5 17 0 24 -2 18
-5z m-473 -13 c0 -5 -16 -10 -36 -10 -21 0 -33 4 -29 10 3 6 19 10 36 10 16 0
29 -4 29 -10z m-2648 -22 c-12 -12 -35 -1 -27 12 3 5 13 6 21 3 10 -4 12 -9 6
-15z m33 2 c3 -5 1 -10 -4 -10 -6 0 -11 5 -11 10 0 6 2 10 4 10 3 0 8 -4 11
-10z m95 0 c0 -5 -5 -10 -11 -10 -5 0 -7 5 -4 10 3 6 8 10 11 10 2 0 4 -4 4
-10z m-1430 -30 c0 -5 -20 -10 -45 -10 -25 0 -45 -4 -45 -9 0 -13 -42 -21 -59
-11 -13 7 -10 9 12 10 16 0 26 4 22 9 -5 9 21 14 93 19 12 1 22 -2 22 -8z
m750 0 c0 -5 -4 -10 -10 -10 -5 0 -10 5 -10 10 0 6 5 10 10 10 6 0 10 -4 10
-10z m1796 -3 c4 -4 -5 -7 -20 -7 -15 0 -25 4 -22 9 7 10 31 9 42 -2z m204 7
c-36 -7 -150 -9 -150 -2 0 4 37 7 83 7 45 -1 75 -3 67 -5z m-3002 -26 c3 -15
-4 -18 -42 -18 -32 0 -46 4 -46 13 0 22 12 28 50 25 24 -2 36 -9 38 -20z
m7657 1 c-7 -11 -41 -12 -86 -1 -32 7 -31 7 21 12 60 6 73 4 65 -11z m-5172 4
c-7 -2 -19 -2 -25 0 -7 3 -2 5 12 5 14 0 19 -2 13 -5z m-3228 -13 c3 -5 -1
-10 -10 -10 -9 0 -13 5 -10 10 3 6 8 10 10 10 2 0 7 -4 10 -10z m-180 -9 c7
-12 -1 -17 -42 -26 -26 -5 -33 -3 -33 8 0 24 62 38 75 18z m-248 -18 c5 -13
-51 -28 -67 -18 -8 5 -7 11 1 21 14 17 61 15 66 -3z m373 7 c0 -5 -4 -10 -10
-10 -5 0 -10 5 -10 10 0 6 5 10 10 10 6 0 10 -4 10 -10z m150 0 c0 -5 -7 -10
-15 -10 -8 0 -15 5 -15 10 0 6 7 10 15 10 8 0 15 -4 15 -10z m100 6 c0 -11
-19 -15 -25 -6 -3 5 1 10 9 10 9 0 16 -2 16 -4z m2025 -6 c3 -5 -1 -10 -10
-10 -9 0 -13 5 -10 10 3 6 8 10 10 10 2 0 7 -4 10 -10z m-2855 -14 c0 -18 -76
-32 -93 -17 -14 11 -87 10 -87 -1 0 -5 -7 -8 -15 -8 -24 0 -17 28 8 33 12 2
59 5 105 6 65 1 82 -2 82 -13z m-397 -2 c15 -3 27 -10 27 -16 0 -6 -7 -8 -15
-5 -8 4 -17 2 -20 -3 -7 -11 -88 -14 -98 -3 -4 3 -2 12 4 19 11 13 54 16 102
8z m141 -3 c3 -5 -1 -11 -9 -15 -9 -3 -15 0 -15 9 0 16 16 20 24 6z m351 -1
c4 -6 -5 -10 -19 -10 -14 0 -26 5 -26 10 0 6 9 10 19 10 11 0 23 -4 26 -10z
m10154 -25 c-25 -43 -20 -42 -324 -55 -337 -15 -533 -16 -546 -3 -7 7 -7 13
-1 17 5 3 132 13 283 22 151 9 337 24 414 34 77 10 152 18 167 19 l27 1 -20
-35z m-11119 15 c0 -5 -7 -10 -16 -10 -8 0 -12 5 -9 10 3 6 10 10 16 10 5 0 9
-4 9 -10z m340 -10 c0 -5 -9 -10 -20 -10 -11 0 -20 5 -20 10 0 6 9 10 20 10
11 0 20 -4 20 -10z m-320 -10 c0 -5 -5 -10 -11 -10 -5 0 -7 5 -4 10 3 6 8 10
11 10 2 0 4 -4 4 -10z m-732 -22 c3 -14 -4 -18 -31 -18 -40 0 -51 8 -35 27 16
19 62 12 66 -9z m-364 -12 c-8 -20 -114 -36 -114 -17 0 15 92 43 112 34 4 -2
5 -10 2 -17z m76 20 c0 -2 3 -11 6 -20 5 -13 -1 -16 -25 -16 -34 0 -37 4 -18
25 11 13 37 21 37 11z m-356 -12 c35 -13 12 -50 -24 -39 -22 7 -27 31 -7 38 6
3 13 6 14 6 1 1 8 -2 17 -5z m-346 -26 c22 -22 13 -28 -44 -28 -36 0 -53 4
-49 11 4 6 13 8 21 5 8 -3 20 1 26 9 16 18 30 19 46 3z m11892 2 c0 -6 -33
-10 -79 -10 -43 0 -93 -3 -110 -6 -19 -4 -31 -2 -31 4 0 13 38 18 143 20 46 1
77 -2 77 -8z m-8125 -10 c-29 -12 -108 -12 -100 0 3 6 32 10 63 9 41 0 51 -3
37 -9z m7860 0 c3 -5 1 -10 -4 -10 -6 0 -11 5 -11 10 0 6 2 10 4 10 3 0 8 -4
11 -10z m-11765 -16 c0 -9 -5 -14 -12 -12 -18 6 -21 28 -4 28 9 0 16 -7 16
-16z m12910 8 c0 -17 -269 -432 -280 -432 -12 0 -37 33 -60 79 -25 50 -87 111
-112 111 -30 0 -61 38 -53 67 8 32 -27 73 -62 73 -26 0 -31 15 -7 24 9 3 51 6
94 6 43 0 82 5 85 10 3 6 33 10 65 10 32 0 62 5 66 11 4 8 -15 9 -70 4 -47 -5
-76 -4 -76 2 0 6 44 14 98 18 53 4 135 11 182 15 130 11 130 11 130 2z m-9590
-12 c0 -5 -7 -10 -16 -10 -8 0 -12 5 -9 10 3 6 10 10 16 10 5 0 9 -4 9 -10z
m8210 0 c0 -5 -18 -10 -41 -10 -24 0 -38 4 -34 10 3 6 22 10 41 10 19 0 34 -4
34 -10z m80 6 c0 -11 -19 -15 -25 -6 -3 5 1 10 9 10 9 0 16 -2 16 -4z m-222
-16 c-16 -5 -83 -11 -150 -14 -68 -4 -158 -9 -200 -12 -52 -4 -78 -2 -78 5 0
7 31 11 83 12 45 1 116 5 157 9 111 10 222 10 188 0z m-8565 -7 c-7 -2 -19 -2
-25 0 -7 3 -2 5 12 5 14 0 19 -2 13 -5z m-228 -13 c-55 -10 -349 -21 -341 -12
8 8 173 18 301 19 64 1 72 -1 40 -7z m8278 -7 c-13 -2 -33 -2 -45 0 -13 2 -3
4 22 4 25 0 35 -2 23 -4z m-8798 -13 c-3 -5 -13 -10 -21 -10 -8 0 -14 5 -14
10 0 6 9 10 21 10 11 0 17 -4 14 -10z m8562 4 c-3 -3 -12 -4 -19 -1 -8 3 -5 6
6 6 11 1 17 -2 13 -5z m-8892 -14 c-3 -5 -43 -10 -88 -9 -56 1 -74 3 -57 9 37
12 152 12 145 0z m-235 -4 c0 -9 -30 -14 -35 -6 -4 6 3 10 14 10 12 0 21 -2
21 -4z m-590 -26 c0 -5 -14 -10 -31 -10 -17 0 -28 4 -24 10 3 6 17 10 31 10
13 0 24 -4 24 -10z m110 0 c-25 -4 -49 -4 -54 1 -6 5 12 8 45 8 l54 -2 -45 -7z
m-690 -18 c0 -5 -44 -12 -97 -15 -138 -10 -179 -9 -167 3 5 5 56 11 114 13 58
1 115 4 128 5 12 1 22 -2 22 -6z m333 1 c-13 -2 -33 -2 -45 0 -13 2 -3 4 22 4
25 0 35 -2 23 -4z m-658 -23 c-3 -5 -31 -10 -61 -10 -34 0 -53 4 -49 10 3 6
31 10 61 10 34 0 53 -4 49 -10z m-295 -8 c0 -5 -73 -12 -162 -16 -90 -4 -200
-13 -246 -20 -85 -12 -97 -10 -82 13 6 10 54 16 191 21 283 10 299 11 299 2z
m12620 -32 c0 -5 -4 -10 -10 -10 -5 0 -10 5 -10 10 0 6 5 10 10 10 6 0 10 -4
10 -10z m-12640 -59 c0 -5 -57 -12 -127 -16 -71 -3 -155 -11 -188 -16 -76 -11
-105 -11 -105 0 0 19 75 26 383 39 20 1 37 -2 37 -7z m8632 -213 l3 -43 45 0
45 0 3 -42 3 -43 -52 0 -51 0 7 -330 7 -330 -50 0 c-47 0 -51 2 -54 25 l-3 25
-37 -26 c-29 -21 -52 -28 -105 -31 -86 -6 -141 20 -190 91 -43 62 -55 111 -54
218 0 134 48 229 136 269 70 32 175 19 227 -28 17 -15 18 -13 18 50 l0 67 -70
0 -70 0 0 40 0 40 70 0 70 0 0 38 c0 21 3 42 7 45 3 4 26 7 49 7 l43 0 3 -42z
m-2895 26 c-3 -3 -12 -4 -19 -1 -8 3 -5 6 6 6 11 1 17 -2 13 -5z m3231 -30
c26 -18 30 -65 6 -88 -23 -24 -70 -20 -88 6 -21 30 -20 54 4 78 24 24 48 25
78 4z m-6755 -224 c48 -124 103 -265 122 -315 l34 -90 21 50 c31 70 132 317
188 458 l47 117 70 -2 c39 -2 69 -6 68 -10 -2 -5 -3 -179 -3 -388 l0 -380 -57
0 -56 0 7 283 c4 155 10 293 13 307 11 49 -11 8 -57 -103 -133 -322 -193 -463
-202 -474 -6 -7 -26 -13 -44 -13 -26 0 -37 5 -44 23 -5 12 -57 144 -115 292
-58 149 -109 278 -113 289 -4 10 -6 -119 -4 -288 l4 -306 -56 0 -56 0 0 148
c0 82 3 258 7 391 l6 242 66 -3 66 -3 88 -225z m7097 -50 l0 -280 -45 0 c-44
0 -45 1 -46 33 0 17 -4 140 -8 272 -4 132 -6 243 -4 248 2 4 26 7 54 7 l49 0
0 -280z m-4605 264 c9 -4 21 -18 26 -32 14 -37 -12 -72 -54 -72 -42 0 -57 15
-57 57 0 44 38 65 85 47z m8173 -46 c-6 -17 -56 -24 -221 -32 -84 -4 -137 -4
-133 2 3 5 58 12 123 17 65 4 138 10 163 15 67 11 72 11 68 -2z m-12588 -68
c0 -5 -7 -10 -15 -10 -8 0 -15 5 -15 10 0 6 7 10 15 10 8 0 15 -4 15 -10z
m-385 -20 c-3 -5 -10 -10 -16 -10 -5 0 -9 5 -9 10 0 6 7 10 16 10 8 0 12 -4 9
-10z m4605 -34 c0 -58 -48 -138 -91 -151 -16 -6 -17 -8 -1 -43 24 -57 21 -213
-6 -274 -28 -64 -89 -122 -147 -142 -134 -45 -262 7 -326 132 -21 41 -24 61
-24 152 0 94 3 110 27 155 52 99 126 145 232 145 62 0 132 -24 168 -57 36 -33
88 23 88 95 0 7 15 12 40 12 35 0 40 -3 40 -24z m8290 14 c0 -5 -21 -10 -47
-10 -27 0 -92 -3 -145 -7 -69 -4 -98 -3 -98 5 0 11 36 14 228 20 36 1 62 -2
62 -8z m-495 -30 c-45 -11 -95 -11 -95 0 0 6 27 9 63 9 49 -1 56 -3 32 -9z
m-9019 -15 c83 -24 141 -101 150 -198 3 -29 7 -67 9 -84 l4 -33 -199 0 -199 0
6 -37 c7 -48 36 -97 72 -122 60 -43 160 -36 214 15 26 24 31 25 54 13 41 -22
40 -39 -5 -79 -52 -47 -112 -64 -200 -58 -75 6 -112 21 -160 69 -61 60 -76
102 -76 214 -1 88 2 107 25 156 61 129 175 183 305 144z m5699 -280 l0 -290
-46 -3 -47 -3 -7 285 c-4 156 -4 289 0 296 4 6 26 10 53 8 l47 -3 0 -290z
m3184 291 c-8 -8 -262 -25 -273 -18 -6 4 16 10 49 13 75 7 230 10 224 5z
m-6265 -36 c20 -14 39 -33 42 -43 5 -15 11 -13 47 16 51 41 95 57 156 57 55 0
126 -33 154 -71 30 -42 37 -94 37 -311 l0 -208 -49 0 -50 0 -3 221 -3 221 -33
29 c-64 57 -181 28 -209 -51 -7 -22 -12 -106 -12 -227 l-1 -193 -49 0 -50 0
-3 221 -3 221 -34 30 c-31 28 -38 30 -94 26 -52 -4 -64 -9 -88 -36 l-29 -32 0
-215 0 -215 -52 0 -53 0 1 288 1 287 46 3 c47 3 47 3 47 -29 0 -30 1 -31 18
-16 67 61 196 74 266 27z m1633 11 c26 -12 52 -35 70 -62 28 -42 28 -44 34
-253 4 -116 10 -221 14 -233 7 -22 5 -23 -45 -23 -48 0 -53 2 -63 29 l-11 29
-31 -23 c-157 -120 -385 25 -311 198 33 78 108 114 253 124 90 6 93 7 93 30 0
36 -25 88 -51 107 -53 37 -165 8 -191 -49 -10 -22 -18 -25 -60 -25 -52 0 -55
4 -34 53 18 43 65 85 112 102 58 21 170 18 221 -4z m-2812 -96 c0 -55 -1 -184
-3 -287 l-2 -188 -50 0 -50 0 0 291 0 290 53 -3 52 -3 0 -100z m1915 -105 c0
-268 9 -290 115 -290 50 0 77 10 113 43 22 20 22 25 22 239 l0 218 49 0 48 0
8 -279 c4 -154 4 -284 0 -290 -3 -6 -26 -11 -51 -11 -40 0 -44 2 -44 25 l0 25
-40 -26 c-58 -39 -171 -46 -227 -15 -21 12 -50 38 -63 58 -24 36 -25 42 -30
265 -3 126 -3 233 -2 238 2 6 26 10 53 10 l49 0 0 -210z m4980 200 c-18 -12
-83 -13 -76 -2 3 5 24 9 48 10 31 1 39 -1 28 -8z m-11395 -20 c3 -5 -3 -10
-15 -10 -12 0 -18 5 -15 10 3 6 10 10 15 10 5 0 12 -4 15 -10z m11040 0 c4 -6
-14 -9 -47 -9 l-53 2 40 7 c22 4 43 8 47 9 4 0 10 -3 13 -9z m105 0 c0 -5 -11
-10 -25 -10 -14 0 -25 5 -25 10 0 6 11 10 25 10 14 0 25 -4 25 -10z m-608 -32
c-9 -9 -15 -9 -24 0 -9 9 -7 12 12 12 19 0 21 -3 12 -12z m-122 -8 c-38 -12
-159 -12 -140 0 8 5 49 9 90 9 53 -1 68 -3 50 -9z m-437 -17 c-7 -2 -21 -2
-30 0 -10 3 -4 5 12 5 17 0 24 -2 18 -5z m2520 0 c-12 -2 -27 -11 -35 -20 -11
-14 -9 -15 21 -8 23 5 31 4 27 -4 -4 -6 -15 -11 -24 -12 -10 0 -4 -6 13 -12
35 -14 45 -42 15 -44 -11 -1 -20 2 -20 6 0 4 -7 8 -15 8 -9 0 -14 -6 -11 -13
3 -8 1 -16 -4 -19 -5 -3 -12 11 -16 30 -6 34 -7 35 -25 19 -23 -21 -24 -32 -2
-56 9 -11 11 -18 5 -18 -7 0 -12 4 -12 9 0 5 -7 12 -16 15 -14 5 -15 4 -4 -9
10 -12 10 -15 0 -15 -9 0 -9 -4 -2 -12 7 -9 6 -17 -4 -26 -8 -7 -14 -8 -14 -2
0 32 -42 -9 -173 -167 -80 -98 -156 -188 -169 -200 -23 -21 -27 -21 -583 -28
-381 -4 -557 -3 -550 4 6 5 44 12 85 14 64 3 59 3 -32 5 -60 1 -108 6 -108 11
0 11 96 19 365 28 l210 8 -255 7 c-140 5 -355 6 -477 2 -157 -4 -223 -3 -223
5 0 6 5 11 12 11 9 0 9 3 0 12 -10 10 -15 10 -22 -2 -7 -12 -15 -12 -43 -2
-42 15 -47 15 -47 -2 0 -8 -7 -17 -16 -20 -24 -9 -129 -7 -140 2 -5 5 -40 5
-79 0 -38 -6 -157 -12 -264 -14 -176 -5 -195 -4 -213 13 -20 18 -17 18 93 30
63 6 164 12 224 12 61 1 146 7 190 15 44 8 154 22 245 31 91 9 201 21 245 27
44 6 112 12 150 15 39 2 85 11 104 19 18 9 44 14 56 11 13 -2 30 0 37 4 8 5
-13 9 -52 10 -64 1 -65 1 -20 9 25 4 131 16 235 25 302 29 258 46 -62 25 -419
-27 -798 -39 -812 -24 -13 13 32 19 247 35 436 34 606 49 692 64 106 19 262
36 314 36 21 -1 46 4 55 9 11 6 -21 10 -99 11 -63 1 -155 4 -205 8 -109 9
-103 10 263 26 115 5 162 11 159 19 -2 6 -18 13 -36 16 -17 3 -32 10 -32 15 0
12 143 30 166 21 21 -8 19 -27 -5 -33 -29 -8 -24 -23 8 -23 15 0 99 7 187 15
88 8 190 15 228 15 37 0 67 3 67 8 0 9 -167 8 -177 -1 -12 -13 -43 -7 -43 7 0
21 12 26 83 35 62 9 381 12 340 4z m-11703 -13 c-30 -5 -104 -9 -165 -9 -60
-1 -137 -5 -170 -11 -69 -11 -227 -30 -300 -36 -27 -2 -57 -5 -65 -6 -26 -4
-130 13 -130 22 0 8 28 10 370 31 91 5 183 11 205 13 22 1 101 3 175 3 102 0
122 -2 80 -7z m11165 -10 c3 -5 -3 -10 -13 -10 -11 0 -25 -7 -32 -15 -15 -18
-20 -18 -44 0 -10 7 -15 18 -11 24 8 14 92 14 100 1z m75 -6 c0 -17 -22 -14
-28 4 -2 7 3 12 12 12 9 0 16 -7 16 -16z m-2820 -14 c0 -5 -4 -10 -10 -10 -5
0 -10 5 -10 10 0 6 5 10 10 10 6 0 10 -4 10 -10z m2356 -11 c8 -13 -15 -30
-36 -26 -8 1 -16 10 -18 20 -3 12 3 17 22 17 14 0 28 -5 32 -11z m-352 -7 c4
-7 -27 -42 -38 -42 -2 0 -7 8 -10 17 -10 24 34 47 48 25z m123 -12 c-29 -23
-97 -28 -97 -7 0 23 11 27 68 27 l55 0 -26 -20z m-11407 -10 c0 -5 -4 -10 -10
-10 -5 0 -10 5 -10 10 0 6 5 10 10 10 6 0 10 -4 10 -10z m11023 3 c12 -11 -14
-33 -39 -33 -25 0 -39 14 -29 30 7 11 58 14 68 3z m-119 -28 c-6 -16 -22 -19
-48 -9 -24 9 -9 24 24 24 22 0 28 -4 24 -15z m-79 -5 c-3 -5 -17 -10 -31 -10
-13 0 -24 5 -24 10 0 6 14 10 31 10 17 0 28 -4 24 -10z m-9510 -20 c-28 -12
-67 -12 -60 0 3 6 23 10 43 9 30 0 33 -2 17 -9z m-135 -10 c-8 -5 -49 -10 -90
-11 -41 0 -136 -6 -210 -13 -136 -12 -194 -9 -110 7 25 4 104 11 175 15 232
12 251 13 235 2z m9090 0 c0 -5 -4 -10 -9 -10 -6 0 -13 5 -16 10 -3 6 1 10 9
10 9 0 16 -4 16 -10z m-9580 -30 c0 -5 -18 -10 -41 -10 -24 0 -38 4 -34 10 3
6 22 10 41 10 19 0 34 -4 34 -10z m-130 -10 c0 -5 -4 -10 -10 -10 -5 0 -10 5
-10 10 0 6 5 10 10 10 6 0 10 -4 10 -10z m-100 -10 c0 -5 -4 -10 -10 -10 -5 0
-10 5 -10 10 0 6 5 10 10 10 6 0 10 -4 10 -10z m9845 -90 c3 -5 1 -10 -4 -10
-6 0 -11 5 -11 10 0 6 2 10 4 10 3 0 8 -4 11 -10z m-130 -10 c3 -5 -1 -10 -9
-10 -9 0 -16 5 -16 10 0 6 4 10 9 10 6 0 13 -4 16 -10z m-181 -9 c8 -12 -50
-20 -189 -26 -66 -3 -139 -8 -162 -10 -24 -3 -43 -1 -43 4 0 5 51 12 113 16
61 4 141 11 177 15 95 11 98 11 104 1z m106 -1 c0 -5 -16 -10 -36 -10 -21 0
-33 4 -29 10 3 6 19 10 36 10 16 0 29 -4 29 -10z m-560 -30 c0 -5 -17 -9 -37
-9 -38 1 -38 1 -8 9 43 11 45 11 45 0z m-211 -14 c-8 -8 -88 -10 -95 -3 -4 4
17 7 46 7 29 0 51 -2 49 -4z m-179 -36 c11 -11 20 -29 20 -40 0 -25 -34 -60
-58 -60 -32 0 -62 29 -62 60 0 53 62 78 100 40z m-4287 -62 c-2 -70 -25 -131
-66 -175 -25 -27 -32 -28 -60 -6 l-22 16 22 46 c14 27 25 75 29 119 l7 73 46
-3 46 -3 -2 -67z m-5223 -18 c0 -5 -26 -10 -57 -10 -32 -1 -91 -7 -131 -14
-69 -12 -97 -7 -76 14 19 18 264 27 264 10z m10050 -29 c0 -25 -70 -31 -171
-15 l-54 9 55 6 c90 10 170 10 170 0z m-370 -21 c0 -5 -5 -10 -11 -10 -5 0 -7
5 -4 10 3 6 8 10 11 10 2 0 4 -4 4 -10z m127 4 c-3 -3 -12 -4 -19 -1 -8 3 -5
6 6 6 11 1 17 -2 13 -5z m-9657 -32 c0 -5 -64 -14 -142 -21 -79 -7 -162 -15
-185 -18 -54 -6 -58 12 -5 22 31 6 169 17 300 23 17 1 32 -2 32 -6z m10870 -2
c0 -5 -4 -10 -10 -10 -5 0 -10 5 -10 10 0 6 5 10 10 10 6 0 10 -4 10 -10z
m-7572 -37 c43 -57 -37 -124 -90 -76 -41 37 -3 111 50 98 15 -3 33 -13 40 -22z
m6712 17 c0 -5 -4 -10 -10 -10 -5 0 -10 5 -10 10 0 6 5 10 10 10 6 0 10 -4 10
-10z m-157 -7 c-13 -2 -33 -2 -45 0 -13 2 -3 4 22 4 25 0 35 -2 23 -4z m952
-13 c3 -5 1 -10 -4 -10 -6 0 -11 5 -11 10 0 6 2 10 4 10 3 0 8 -4 11 -10z
m-1835 -10 c-20 -13 -50 -13 -50 0 0 6 15 10 33 10 24 0 28 -3 17 -10z m3285
-20 c-16 -18 -31 -20 -132 -20 -92 0 -113 3 -113 15 0 11 20 15 93 18 50 1
110 4 131 5 39 2 39 2 21 -18z m-17 -54 c-12 -9 -71 -15 -185 -20 -93 -3 -232
-9 -310 -13 -98 -4 -143 -3 -143 5 0 12 71 17 365 30 311 13 293 13 273 -2z
m-176 -158 c-20 -21 -31 -22 -147 -22 -120 1 -147 5 -131 21 8 8 128 19 231
21 l69 2 -22 -22z m-442 -18 c0 -5 -4 -10 -10 -10 -5 0 -10 5 -10 10 0 6 5 10
10 10 6 0 10 -4 10 -10z m-160 -9 c0 -12 -73 -20 -230 -27 -97 -4 -131 -3
-120 5 8 6 53 11 100 12 47 0 108 4 135 9 71 11 115 11 115 1z m95 -1 c-3 -5
-19 -10 -36 -10 -16 0 -29 5 -29 10 0 6 16 10 36 10 21 0 33 -4 29 -10z
m-11305 -30 c0 -5 -4 -10 -10 -10 -5 0 -10 5 -10 10 0 6 5 10 10 10 6 0 10 -4
10 -10z m10780 0 c-20 -13 -53 -13 -45 0 3 6 18 10 33 10 21 0 24 -2 12 -10z
m-183 -6 c-11 -12 -77 -15 -77 -4 0 5 19 10 42 10 23 0 38 -3 35 -6z m-10927
-8 c0 -11 -19 -15 -25 -6 -3 5 1 10 9 10 9 0 16 -2 16 -4z m277 -112 c-3 -3
-12 -4 -19 -1 -8 3 -5 6 6 6 11 1 17 -2 13 -5z m1640 -11 c4 -10 -274 -29
-285 -18 -11 11 6 13 133 23 145 10 147 10 152 -5z m-307 -13 c0 -5 -13 -10
-30 -10 -16 0 -30 5 -30 10 0 6 14 10 30 10 17 0 30 -4 30 -10z m-110 -9 c0
-14 -53 -20 -240 -26 -231 -7 -632 -34 -763 -52 -41 -5 -46 -8 -35 -20 12 -11
31 -11 129 2 130 17 219 19 219 6 0 -20 -27 -24 -251 -38 -210 -13 -231 -13
-251 2 -20 14 -20 16 -4 13 10 -2 21 3 23 9 3 8 -10 15 -36 19 -46 7 -55 24
-13 25 15 0 52 2 82 4 354 29 447 35 538 36 59 0 188 6 287 13 227 17 315 18
315 7z m440 -31 c0 -5 -5 -10 -11 -10 -5 0 -7 5 -4 10 3 6 8 10 11 10 2 0 4
-4 4 -10z m-225 -10 c3 -5 -3 -10 -15 -10 -12 0 -18 5 -15 10 3 6 10 10 15 10
5 0 12 -4 15 -10z m135 0 c0 -5 -23 -10 -51 -10 -31 0 -48 4 -44 10 3 6 26 10
51 10 24 0 44 -4 44 -10z m-482 -22 c-5 -14 -184 -31 -225 -23 -50 11 -18 24
65 28 48 1 104 4 125 5 27 1 37 -2 35 -10z m47 2 c3 -5 1 -10 -4 -10 -6 0 -11
5 -11 10 0 6 2 10 4 10 3 0 8 -4 11 -10z m-355 -19 c0 -11 -61 -21 -137 -21
-66 0 -87 16 -30 23 64 8 167 7 167 -2z m8775 -11 c3 -5 -3 -10 -13 -10 -13 0
-19 -6 -18 -17 1 -13 -8 -19 -31 -21 -34 -3 -41 6 -21 26 9 9 8 12 -4 12 -9 0
-20 -9 -23 -20 -3 -11 -9 -20 -13 -20 -135 -6 -389 -21 -433 -26 -55 -6 -59
-5 -59 13 0 38 26 49 73 31 56 -20 257 -8 337 21 59 21 194 28 205 11z m-1027
-72 c3 -25 1 -27 -50 -32 -119 -12 -525 -22 -534 -13 -4 3 3 16 15 28 12 13
21 17 21 11 0 -7 7 -12 15 -12 8 0 15 5 15 11 0 6 8 8 19 4 10 -3 31 0 45 7
23 10 32 9 58 -7 28 -16 31 -16 40 -1 10 18 59 22 88 6 11 -6 36 -6 63 -1 26
4 52 4 61 -1 11 -6 16 -5 16 4 0 7 11 14 25 14 17 1 25 -3 25 -14 0 -13 4 -12
22 6 29 29 52 24 56 -10z m-2028 12 c0 -5 -7 -10 -16 -10 -8 0 -12 5 -9 10 3
6 10 10 16 10 5 0 9 -4 9 -10z m2290 -17 c0 -8 -33 -13 -107 -15 -60 -2 -110
-2 -113 0 -3 2 2 9 11 15 22 16 209 16 209 0z m65 7 c3 -5 1 -10 -4 -10 -6 0
-11 5 -11 10 0 6 2 10 4 10 3 0 8 -4 11 -10z m-6700 -20 c3 -5 1 -10 -4 -10
-6 0 -11 5 -11 10 0 6 2 10 4 10 3 0 8 -4 11 -10z m5602 -6 c4 -12 20 -15 81
-12 51 2 76 -1 79 -9 5 -15 -42 -19 -352 -33 -514 -23 -555 -24 -555 -12 0 7
7 12 15 12 7 0 18 8 24 18 9 16 11 16 23 0 11 -15 24 -17 85 -11 57 5 70 9 66
21 -5 11 0 13 25 8 18 -4 33 -3 37 3 9 16 41 13 77 -5 39 -20 218 -11 218 12
0 10 12 14 38 14 24 0 32 -3 23 -9 -23 -15 3 -20 55 -12 27 5 43 9 37 10 -19
2 -16 21 2 21 9 0 18 -7 22 -16z m-257 -4 c0 -5 -9 -10 -21 -10 -11 0 -17 5
-14 10 3 6 13 10 21 10 8 0 14 -4 14 -10z m-103 -6 c-3 -3 -12 -4 -19 -1 -8 3
-5 6 6 6 11 1 17 -2 13 -5z m-367 -18 c0 -3 -4 -8 -10 -11 -5 -3 -10 -1 -10 4
0 6 5 11 10 11 6 0 10 -2 10 -4z m-523 -24 c6 -4 9 -19 6 -34 -5 -25 -9 -27
-51 -25 -46 2 -68 21 -35 30 10 3 -4 5 -31 6 -37 1 -47 -2 -43 -13 3 -7 0 -19
-6 -25 -14 -14 -47 -15 -48 -1 -1 6 -2 16 -3 23 -1 7 -15 12 -33 12 -17 0 -35
3 -39 8 -9 9 -13 8 131 17 66 3 125 7 130 8 6 1 15 -2 22 -6z m157 -7 c13 -10
44 -15 90 -15 93 -1 66 -15 -41 -23 -54 -4 -85 -3 -89 4 -4 6 -1 15 6 19 7 4
9 13 6 19 -10 15 5 13 28 -4z m-504 -15 c0 -5 -4 -10 -10 -10 -5 0 -10 5 -10
10 0 6 5 10 10 10 6 0 10 -4 10 -10z m750 0 c0 -5 -7 -10 -15 -10 -8 0 -15 5
-15 10 0 6 7 10 15 10 8 0 15 -4 15 -10z m75 0 c-3 -5 -12 -10 -20 -10 -8 0
-17 5 -20 10 -4 6 5 10 20 10 15 0 24 -4 20 -10z m-1065 -10 c0 -5 -4 -10 -10
-10 -5 0 -10 5 -10 10 0 6 5 10 10 10 6 0 10 -4 10 -10z m677 -7 c2 -6 -12
-11 -37 -11 -26 -1 -40 4 -40 12 0 16 72 15 77 -1z m-789 -4 c-31 -17 -20 -29
27 -29 55 0 59 -15 8 -24 -48 -9 -78 -9 -125 0 -38 6 -43 24 -7 24 10 0 19 5
19 11 0 6 -9 9 -20 6 -11 -3 -22 -1 -25 3 -6 10 29 16 95 18 35 1 41 -1 28 -9z
m-338 -8 c0 -10 -110 -22 -124 -13 -6 3 0 9 14 13 36 10 110 10 110 0z m-3365
-11 c3 -5 -1 -10 -10 -10 -9 0 -13 5 -10 10 3 6 8 10 10 10 2 0 7 -4 10 -10z
m4075 6 c0 -11 -19 -15 -25 -6 -3 5 1 10 9 10 9 0 16 -2 16 -4z m67 -2 c-3 -3
-12 -4 -19 -1 -8 3 -5 6 6 6 11 1 17 -2 13 -5z m-1327 -19 c0 -9 -9 -15 -25
-15 -14 0 -25 -4 -25 -10 0 -5 7 -10 16 -10 30 0 7 -25 -26 -28 -40 -4 -66 16
-32 24 12 4 22 11 22 17 0 6 -42 7 -125 3 -87 -5 -125 -4 -125 3 0 6 19 12 43
12 43 1 242 14 265 17 6 1 12 -5 12 -13z m1024 -6 c-27 -11 -34 -10 -34 0 0
11 31 20 44 13 5 -3 1 -9 -10 -13z m94 9 c-6 -18 -28 -21 -28 -4 0 9 7 16 16
16 9 0 14 -5 12 -12z m-1478 -18 c0 -6 -30 -10 -71 -10 -44 0 -68 4 -64 10 3
6 35 10 71 10 36 0 64 -4 64 -10z m845 0 c3 -5 -1 -10 -9 -10 -9 0 -16 5 -16
10 0 6 4 10 9 10 6 0 13 -4 16 -10z m195 0 c-20 -13 -70 -13 -70 0 0 6 19 10
43 10 31 0 38 -3 27 -10z m1150 0 c0 -5 -4 -10 -10 -10 -5 0 -10 5 -10 10 0 6
5 10 10 10 6 0 10 -4 10 -10z m-2380 -10 c-8 -5 -37 -10 -65 -10 -102 0 -245
-13 -245 -22 0 -6 55 -8 130 -6 86 2 133 -1 141 -9 13 -13 -41 -19 -231 -28
-69 -3 -160 -8 -202 -11 -73 -5 -78 -4 -78 15 0 11 -6 23 -12 28 -7 4 -115 6
-240 5 -159 -3 -228 0 -228 7 0 7 38 11 108 12 59 0 217 7 352 13 310 17 591
19 570 6z m1374 -19 c3 -5 26 -7 51 -5 50 3 60 -11 18 -27 -20 -7 -33 -7 -45
0 -11 7 -19 7 -23 1 -3 -6 -19 -10 -36 -10 -35 0 -39 22 -6 38 28 14 35 14 41
3z m-2431 -7 c12 -13 -3 -21 -28 -17 -13 3 -22 9 -19 14 6 10 38 12 47 3z
m1302 -6 c6 0 27 4 48 8 31 5 37 4 37 -10 0 -14 -9 -16 -62 -14 -42 2 -63 7
-66 17 -4 10 0 12 14 6 11 -4 24 -7 29 -7z m165 -4 c0 -9 -5 -14 -12 -12 -18
6 -21 28 -4 28 9 0 16 -7 16 -16z m-1568 -6 c-8 -8 -125 -14 -386 -19 -366 -7
-612 -23 -630 -40 -11 -9 340 -3 355 7 12 7 41 -15 34 -26 -2 -4 -87 -11 -187
-14 -101 -4 -196 -9 -213 -12 -38 -6 -65 10 -47 28 19 19 15 25 -23 32 -114
22 40 35 515 46 539 11 595 11 582 -2z m1248 -3 c0 -10 -10 -15 -30 -15 -49 0
-34 24 18 29 6 0 12 -6 12 -14z m-804 -38 c4 -4 -8 -7 -27 -7 -23 0 -30 3 -20
9 15 10 37 9 47 -2z m114 3 c0 -5 -14 -10 -31 -10 -17 0 -28 4 -24 10 3 6 17
10 31 10 13 0 24 -4 24 -10z m-355 -10 c-3 -5 -13 -10 -21 -10 -8 0 -14 5 -14
10 0 6 9 10 21 10 11 0 17 -4 14 -10z m125 0 c0 -5 -20 -10 -45 -10 -25 0 -45
5 -45 10 0 6 20 10 45 10 25 0 45 -4 45 -10z m-1490 -10 c0 -5 -2 -10 -4 -10
-3 0 -8 5 -11 10 -3 6 -1 10 4 10 6 0 11 -4 11 -10z m747 4 c13 -4 20 -10 17
-15 -7 -12 -184 -12 -184 0 0 14 129 25 167 15z m303 -3 c0 -9 -182 -21 -211
-14 -49 13 -8 23 96 23 63 0 115 -4 115 -9z m40 -1 c0 -5 -4 -10 -10 -10 -5 0
-10 5 -10 10 0 6 5 10 10 10 6 0 10 -4 10 -10z m1335 0 c3 -5 -3 -10 -14 -10
-11 0 -23 5 -26 10 -3 6 3 10 14 10 11 0 23 -4 26 -10z"/>
<path d="M13653 4440 c-54 -33 -68 -71 -68 -190 0 -91 3 -110 22 -141 32 -52
78 -73 142 -67 39 4 59 12 81 33 l30 29 0 146 c0 135 -2 148 -21 169 -42 45
-130 55 -186 21z"/>
<path d="M9444 4446 c-76 -33 -120 -158 -97 -271 21 -98 72 -145 158 -145 53
0 78 11 111 49 32 36 44 82 44 171 0 101 -26 156 -90 188 -50 25 -81 27 -126
8z"/>
<path d="M8454 4435 c-30 -23 -64 -88 -64 -120 0 -13 23 -15 140 -15 l140 0 0
25 c0 39 -25 89 -55 113 -40 32 -119 30 -161 -3z"/>
<path d="M12673 4211 c-63 -29 -79 -75 -46 -132 40 -68 163 -59 225 15 12 15
18 39 18 79 l0 57 -77 0 c-55 0 -90 -6 -120 -19z"/>
<path d="M17018 4193 c12 -2 32 -2 45 0 12 2 2 4 -23 4 -25 0 -35 -2 -22 -4z"/>
<path d="M17030 3940 c0 -5 16 -10 35 -10 19 0 35 5 35 10 0 6 -16 10 -35 10
-19 0 -35 -4 -35 -10z"/>
<path d="M5590 3310 c-12 -8 -11 -10 8 -10 12 0 25 0 29 -1 4 0 9 4 11 10 5
14 -28 14 -48 1z"/>
<path d="M9340 3025 c0 -2 13 -11 28 -19 21 -11 32 -12 47 -3 11 6 40 14 65
18 35 5 24 7 -47 8 -51 0 -93 -1 -93 -4z"/>
<path d="M13035 17510 c-4 -6 -29 -28 -55 -49 l-49 -39 37 -25 c99 -65 271
-135 425 -172 152 -37 160 -32 41 30 -123 65 -195 112 -305 201 -43 35 -80 64
-83 64 -3 0 -8 -5 -11 -10z"/>
<path d="M5638 17460 c-29 -30 -34 -60 -11 -67 6 -2 19 10 28 26 13 26 21 31
54 31 44 0 55 8 40 27 -21 24 -78 16 -111 -17z"/>
<path d="M5213 17258 c-36 -9 -63 -41 -63 -75 0 -33 22 -28 45 10 17 26 27 32
55 32 23 0 35 5 35 14 0 20 -35 29 -72 19z"/>
<path d="M5610 17186 c0 -13 -10 -36 -22 -51 -20 -26 -25 -27 -75 -21 -42 5
-53 3 -53 -8 0 -19 63 -39 99 -31 33 7 65 38 80 78 16 42 13 57 -9 57 -14 0
-20 -7 -20 -24z"/>
<path d="M3863 14590 c-68 -27 -145 -110 -168 -181 -34 -100 -6 -219 68 -297
75 -79 204 -111 308 -77 72 24 159 110 182 179 49 142 -15 300 -148 369 -59
30 -174 33 -242 7z m211 -21 c98 -36 176 -149 176 -254 0 -58 -29 -131 -70
-178 -74 -84 -181 -114 -287 -81 -107 33 -193 149 -193 258 0 115 89 233 200
267 46 14 119 9 174 -12z"/>
<path d="M3880 14463 c-25 -4 -26 -6 -23 -71 10 -206 14 -232 35 -232 18 0 20
5 17 68 l-4 67 33 3 c43 4 69 -13 112 -77 25 -36 42 -51 58 -51 12 0 22 4 22
8 0 4 -22 36 -50 70 -27 34 -45 62 -40 62 23 0 60 50 60 80 0 19 -9 40 -25 55
-21 22 -32 25 -97 24 -40 -1 -84 -4 -98 -6z m169 -49 c11 -10 13 -20 5 -41
-10 -31 -36 -41 -106 -42 l-48 -1 0 49 0 50 48 4 c57 4 82 -1 101 -19z"/>
<path d="M2650 14450 c-15 -16 -35 -53 -45 -82 -33 -102 -75 -148 -137 -148
-33 0 -55 12 -134 75 -33 26 -46 30 -100 30 -56 0 -66 -3 -94 -30 -18 -16 -44
-50 -58 -75 -26 -43 -27 -52 -27 -177 0 -153 4 -145 -107 -188 -139 -54 -195
-124 -186 -232 6 -71 36 -107 173 -210 61 -45 124 -97 141 -116 30 -32 32 -39
38 -143 11 -179 45 -867 51 -1044 l6 -165 -90 -43 c-148 -70 -263 -155 -406
-297 -147 -146 -225 -255 -310 -430 -93 -192 -150 -401 -179 -655 -55 -478 28
-750 277 -911 287 -186 569 -28 680 381 9 30 18 75 22 99 l7 43 167 -7 c91 -4
167 -8 169 -9 1 -2 9 -56 17 -122 36 -280 91 -383 239 -453 113 -53 296 -82
400 -62 137 25 262 122 304 234 35 92 29 179 -43 652 -14 94 -34 229 -45 300
-37 248 -120 763 -211 1300 -111 658 -109 647 -99 709 17 106 85 128 315 101
202 -23 337 -4 493 71 170 82 278 211 304 365 15 85 -7 191 -61 303 -71 147
-150 226 -341 341 -250 151 -286 190 -304 325 -8 59 -59 146 -99 170 -48 30
-101 25 -202 -17 -72 -30 -103 -38 -154 -38 l-63 0 -62 65 c-89 96 -125 120
-175 120 -35 0 -48 -6 -71 -30z m125 -10 c16 -11 59 -51 95 -89 50 -53 75 -72
107 -80 51 -14 68 -11 210 41 72 26 120 38 136 34 64 -16 109 -83 133 -199 9
-40 24 -86 35 -104 28 -45 96 -99 219 -173 219 -133 308 -213 373 -337 50 -97
67 -148 74 -231 15 -185 -88 -337 -297 -436 -130 -62 -184 -72 -360 -67 -326
8 -364 7 -393 -12 -60 -39 -84 -155 -56 -276 5 -23 30 -163 54 -310 25 -146
47 -271 49 -277 3 -7 -16 -13 -48 -17 -139 -14 -293 -148 -347 -302 -50 -141
-46 -282 11 -418 74 -177 213 -282 406 -306 64 -8 85 -7 108 5 16 8 30 13 31
12 5 -7 68 -411 111 -718 33 -236 45 -348 40 -380 l-7 -45 -82 0 c-64 0 -89
-4 -112 -19 -45 -29 -85 -68 -101 -97 -13 -26 -15 -26 -51 -13 -50 18 -83 17
-139 -2 l-46 -16 -29 30 c-51 52 -92 65 -186 59 l-84 -5 -18 37 c-25 50 -48
157 -63 294 l-12 115 -76 6 c-41 3 -128 9 -192 12 l-117 7 -6 -39 c-16 -90
-37 -173 -60 -234 -36 -93 -36 -92 -74 -79 -18 6 -57 9 -87 7 -44 -4 -61 -11
-87 -35 -32 -30 -33 -30 -119 -26 -51 3 -100 1 -118 -6 -29 -10 -34 -8 -57 20
-43 50 -76 62 -172 58 l-86 -4 -23 49 c-81 171 -91 462 -26 826 26 144 93 353
146 454 l15 28 21 -35 c74 -126 336 -201 524 -149 195 55 309 217 296 425 -9
138 -72 263 -189 376 l-42 40 98 48 97 48 -7 122 -6 122 28 6 c136 28 228 77
302 161 79 90 113 185 112 315 -1 230 -171 384 -403 365 -43 -4 -78 -3 -79 1
0 5 -4 60 -8 124 -8 141 -17 157 -148 250 -165 117 -227 195 -208 262 24 86
64 127 164 164 69 25 121 61 132 90 6 17 6 53 -2 109 -9 71 -8 91 6 133 34
105 103 162 174 146 16 -3 56 -28 90 -55 124 -100 205 -73 271 89 47 115 90
144 155 101z m-378 -1461 c41 -15 73 -37 109 -74 142 -144 133 -391 -19 -552
-70 -74 -147 -115 -263 -138 l-32 -6 -6 103 c-3 57 -10 207 -16 333 -6 127
-12 254 -14 283 -4 47 -2 54 17 62 43 17 163 11 224 -11z m761 -1126 c5 -16
19 -89 31 -163 41 -264 82 -516 96 -600 29 -168 23 -186 -69 -183 -169 4 -329
100 -401 243 -97 191 -78 424 47 583 54 67 188 147 248 147 32 0 39 -4 48 -27z
m-1117 -85 c60 -61 110 -135 141 -210 32 -78 33 -252 1 -321 -68 -147 -201
-227 -378 -227 -173 1 -347 83 -376 179 -11 37 -9 41 46 127 75 116 174 234
277 328 77 70 214 175 230 176 4 0 30 -24 59 -52z"/>
<path d="M3165 13779 c-53 -15 -73 -70 -37 -102 45 -41 152 -12 152 41 0 45
-59 76 -115 61z"/>
<path d="M2844 13602 c-55 -44 -59 -109 -10 -158 27 -27 42 -34 74 -34 51 0
99 37 108 85 8 42 0 66 -33 99 -20 21 -35 26 -72 26 -28 0 -54 -7 -67 -18z"/>
<path d="M3731 13438 c-19 -7 -51 -28 -73 -48 -32 -31 -38 -43 -38 -77 0 -54
28 -87 96 -112 65 -25 112 -26 180 -6 135 40 168 152 64 221 -34 23 -54 28
-118 30 -42 2 -92 -2 -111 -8z"/>
<path d="M10002 12368 c-157 -76 -179 -305 -40 -407 54 -40 109 -55 174 -48
62 6 99 24 143 69 47 47 63 84 69 154 8 105 -41 185 -145 238 -46 23 -147 20
-201 -6z m212 -72 c37 -28 76 -98 76 -137 0 -44 -19 -95 -47 -126 -36 -39 -59
-50 -120 -58 -41 -6 -50 -4 -50 8 0 12 5 14 18 6 10 -5 24 -9 31 -9 7 0 -7 10
-32 21 -24 11 -48 25 -52 32 -6 9 -12 9 -28 -1 -27 -16 -38 -9 -61 42 -39 85
-17 165 61 224 42 33 48 34 107 29 47 -3 72 -11 97 -31z m-162 -300 c4 -6 5
-12 4 -14 -6 -6 -56 21 -56 30 0 12 43 -1 52 -16z"/>
<path d="M10076 12285 c1 -16 0 -24 -3 -17 -2 6 -14 12 -26 12 -22 -1 -22 -1
-3 -15 22 -17 9 -20 -27 -6 -29 11 -50 -7 -61 -49 -5 -21 -3 -20 8 5 l14 30
11 -29 c7 -16 9 -31 6 -34 -3 -3 -5 0 -5 6 0 7 -4 12 -10 12 -5 0 -10 -7 -10
-15 0 -8 4 -15 9 -15 16 0 42 -31 35 -42 -4 -6 -10 -5 -15 3 -6 10 -9 3 -10
-21 l-1 -35 -7 30 -7 30 -5 -38 c-4 -30 -2 -36 9 -32 10 3 12 0 8 -10 -4 -13
-1 -12 21 2 14 9 21 19 14 21 -19 6 -12 43 9 49 12 3 20 14 20 26 0 11 -3 18
-6 14 -12 -11 -35 23 -32 45 2 18 9 22 31 20 15 -1 27 2 27 7 0 5 8 8 18 6 18
-3 20 -47 2 -53 -22 -8 -9 -32 15 -30 14 1 25 8 25 16 0 7 -4 11 -9 8 -5 -3
-8 12 -7 33 1 29 4 37 13 29 7 -5 12 -13 11 -16 -3 -23 6 -32 37 -38 19 -3 46
-15 59 -25 23 -18 24 -18 30 3 11 46 -2 65 -47 66 -42 2 -84 33 -72 53 7 11
-27 28 -52 26 -16 -1 -19 -7 -17 -32z m-64 -47 c-12 -12 -35 -1 -27 12 3 5 13
6 21 3 10 -4 12 -9 6 -15z m235 -40 c-3 -8 -6 -5 -6 6 -1 11 2 17 5 13 3 -3 4
-12 1 -19z"/>
<path d="M10040 12300 c0 -5 5 -10 10 -10 6 0 10 5 10 10 0 6 -4 10 -10 10 -5
0 -10 -4 -10 -10z"/>
<path d="M10167 12264 c6 -15 23 -19 23 -5 0 5 -7 11 -14 14 -10 4 -13 1 -9
-9z"/>
<path d="M10210 12271 c0 -5 7 -15 17 -22 15 -13 15 -12 4 9 -12 23 -21 28
-21 13z"/>
<path d="M9946 12164 c-4 -11 -2 -15 8 -11 8 3 17 1 20 -6 3 -8 5 -8 5 -1 1 6
-5 17 -13 23 -11 9 -15 8 -20 -5z"/>
<path d="M10170 12170 c36 -11 52 -11 45 0 -3 6 -21 10 -38 9 -31 -1 -31 -1
-7 -9z"/>
<path d="M10200 12130 c0 -5 6 -10 14 -10 15 0 29 -27 21 -39 -2 -4 2 -8 11
-8 9 0 12 7 8 19 -3 10 -1 18 5 18 6 0 11 7 11 15 0 18 -16 20 -24 3 -5 -10
-7 -10 -12 0 -7 14 -34 16 -34 2z"/>
<path d="M10065 12120 c-16 -4 -24 -8 -17 -9 6 0 12 -7 12 -15 0 -8 6 -17 13
-19 7 -3 5 -6 -5 -6 -21 -1 -25 -31 -5 -31 8 0 17 3 21 7 13 13 36 11 36 -3 0
-9 11 -14 30 -14 17 0 33 -7 39 -17 10 -17 10 -17 11 -1 0 9 -5 20 -12 24 -8
5 -6 11 6 20 14 10 15 17 7 31 -10 17 -10 16 -11 -4 0 -22 -17 -40 -27 -29 -3
3 -1 11 4 18 6 7 10 20 10 30 0 13 -7 15 -34 11 -21 -4 -33 -2 -33 6 0 12 -1
12 -45 1z"/>
<path d="M10210 12039 c0 -5 5 -7 10 -4 6 3 10 8 10 11 0 2 -4 4 -10 4 -5 0
-10 -5 -10 -11z"/>
<path d="M10150 12000 c-12 -8 -11 -10 8 -10 12 0 22 5 22 10 0 13 -11 13 -30
0z"/>
<path d="M10477 12364 c-11 -12 -8 -2569 3 -2644 14 -84 49 -137 115 -170 l50
-25 788 -3 787 -3 0 136 0 135 -692 2 -693 3 -5 1285 -5 1285 -170 3 c-94 2
-174 0 -178 -4z m293 -1344 l5 -1285 692 4 691 4 4 -78 c2 -49 -1 -79 -8 -82
-6 -2 -345 -2 -755 -1 -548 2 -751 6 -771 15 -35 16 -70 54 -63 71 2 7 1 11
-4 8 -5 -3 -12 7 -17 22 -8 30 -18 2578 -9 2600 4 11 28 13 118 11 l112 -4 5
-1285z"/>
<path d="M14400 11497 c0 -521 4 -907 10 -973 36 -368 203 -620 526 -786 439
-227 958 -276 1429 -134 298 89 573 257 691 421 230 323 196 770 -81 1050 -93
94 -168 145 -320 220 -288 142 -670 214 -982 187 -151 -13 -274 -38 -398 -78
-160 -53 -325 -129 -422 -195 -23 -16 -44 -29 -47 -29 -3 0 -6 266 -6 590 l0
590 -200 0 -200 0 0 -863z m338 196 c2 -486 5 -613 15 -613 7 0 53 27 102 61
173 118 403 213 630 261 96 20 138 23 330 23 203 0 231 -2 360 -29 234 -48
460 -135 613 -237 237 -156 362 -381 362 -648 0 -159 -33 -276 -114 -415 -123
-207 -504 -418 -882 -488 -96 -17 -158 -22 -324 -22 -122 0 -237 5 -285 12
-350 56 -663 197 -841 377 -87 87 -143 180 -184 302 -58 176 -60 202 -60 1152
0 477 0 870 0 874 0 4 62 6 138 5 l137 -3 3 -612z"/>
<path d="M15705 11213 c-184 -16 -401 -70 -549 -138 -391 -178 -545 -488 -395
-793 205 -418 978 -613 1569 -394 475 175 675 519 501 860 -121 237 -484 423
-901 461 -112 11 -144 11 -225 4z m375 -78 c273 -55 511 -175 638 -321 115
-132 151 -312 92 -465 -100 -259 -491 -471 -916 -495 -283 -16 -600 55 -819
182 -107 62 -222 179 -263 266 -131 274 -6 535 337 707 93 48 282 108 391 125
52 9 106 18 120 20 50 9 347 -4 420 -19z"/>
<path d="M8105 12338 c-323 -36 -689 -182 -874 -348 l-34 -30 -46 43 c-268
250 -606 320 -937 194 -49 -19 -114 -49 -144 -67 -32 -19 -56 -28 -58 -21 -3
8 -69 11 -213 11 l-209 0 0 -1300 0 -1300 225 0 225 0 0 1058 0 1059 31 61
c51 103 152 176 295 212 120 31 232 23 338 -24 62 -28 158 -113 192 -171 53
-91 54 -113 54 -1184 l0 -988 98 -6 c53 -4 150 -7 214 -7 l117 0 3 988 3 987
27 66 c72 180 202 296 419 373 154 55 249 70 459 71 198 0 279 -10 420 -52
152 -45 267 -117 351 -218 87 -105 79 10 79 -1175 l0 -1050 240 0 240 0 -2
1073 -3 1072 -43 84 c-146 287 -383 458 -769 556 -168 42 -486 57 -698 33z
m1084 -254 c14 -12 -19 -1 -35 12 -18 14 -18 14 6 3 14 -6 27 -13 29 -15z
m115 -93 c-2 -3 -12 3 -22 13 -16 17 -16 18 5 5 12 -7 20 -15 17 -18z m71 -61
c10 -11 16 -20 13 -20 -3 0 -13 9 -23 20 -10 11 -16 20 -13 20 3 0 13 -9 23
-20z m155 -235 c0 -5 -5 -3 -10 5 -5 8 -10 20 -10 25 0 6 5 3 10 -5 5 -8 10
-19 10 -25z m27 -117 c-3 -8 -6 -5 -6 6 -1 11 2 17 5 13 3 -3 4 -12 1 -19z"/>
<path d="M17252 11018 l3 -1103 26 -56 c43 -91 130 -163 285 -235 157 -72 304
-106 515 -119 207 -12 393 22 588 109 57 25 105 46 107 46 2 0 4 -213 4 -474
l0 -474 -27 -33 c-100 -119 -308 -221 -509 -250 -134 -18 -224 -3 -416 71
l-153 59 -9 -161 c-7 -133 -6 -162 5 -169 8 -5 64 -24 124 -44 393 -126 783
-66 1096 169 99 75 176 164 222 256 l32 65 0 1720 0 1720 -180 0 -180 0 -5
-1025 c-4 -789 -8 -1030 -17 -1047 -25 -42 -119 -114 -208 -158 -135 -66 -222
-86 -400 -92 -173 -6 -263 8 -367 55 -111 50 -148 95 -168 204 -7 33 -10 426
-10 1060 l0 1008 -180 0 -180 0 2 -1102z m307 40 c-2 -1003 -2 -1003 19 -1069
49 -150 223 -241 487 -256 246 -13 493 60 662 197 39 32 69 66 84 97 l24 48 3
993 3 992 124 0 125 0 -2 -1697 -3 -1698 -32 -55 c-126 -217 -411 -385 -723
-427 -96 -13 -135 -13 -236 -4 -118 11 -260 43 -336 75 l-38 16 0 105 c0 58 3
105 7 105 4 0 51 -18 104 -40 121 -50 216 -70 325 -70 201 0 448 93 590 223
98 90 94 56 94 646 0 407 -3 512 -12 508 -7 -3 -78 -35 -158 -71 -224 -101
-273 -111 -520 -110 -285 0 -411 29 -626 142 -107 56 -157 101 -188 166 l-26
54 0 1058 c0 583 0 1062 0 1067 0 4 57 7 126 7 l126 0 -3 -1002z"/>
<path d="M9885 11868 c-3 -7 -4 -537 -3 -1178 l3 -1165 223 -3 222 -2 0 1180
0 1180 -220 0 c-167 0 -222 -3 -225 -12z m80 -58 c-3 -5 1 -10 10 -10 9 0 13
5 10 10 -4 6 45 10 139 10 l146 0 0 -1119 0 -1119 -150 -1 c-111 0 -150 3
-150 12 0 7 -4 6 -10 -3 -6 -10 -10 368 -10 1078 0 600 0 1095 0 1099 0 4 6 8
15 9 8 1 15 -2 15 -7 0 -5 -5 -9 -10 -9 -16 0 -9 -2152 8 -2158 9 -3 12 207
12 1026 0 566 3 1044 6 1061 4 17 10 31 15 31 9 0 7 -24 -5 -50 -3 -8 -5 -476
-4 -1040 3 -1017 3 -1025 23 -1025 20 0 20 7 22 1049 3 1057 4 1092 37 1068
13 -10 142 -9 152 0 19 19 -14 29 -89 27 -56 -1 -81 2 -79 10 1 6 -10 11 -24
11 -14 0 -23 -3 -21 -7 3 -5 -1 -13 -8 -20 -11 -10 -15 -7 -20 17 -5 23 -12
30 -30 30 -18 0 -23 4 -19 15 4 8 10 15 16 15 5 0 6 -4 3 -10z"/>
<path d="M10009 11801 c11 -7 11 -9 0 -14 -8 -3 40 -6 107 -6 79 -1 124 -5
132 -13 9 -9 12 -9 12 0 0 7 -6 12 -12 12 -10 0 -10 2 0 9 24 15 -14 21 -136
21 -70 0 -111 -4 -103 -9z m214 -8 c-13 -2 -33 -2 -45 0 -13 2 -3 4 22 4 25 0
35 -2 23 -4z"/>
<path d="M10087 11680 c-16 -16 -17 -76 -14 -1046 l2 -1029 3 1033 c1 678 5
1032 12 1033 6 1 22 2 38 3 l27 1 3 -1037 2 -1038 35 0 c34 0 35 1 35 40 0 36
-2 40 -25 40 l-25 0 0 998 c0 626 -4 1003 -10 1012 -9 13 -10 13 -10 0 0 -13
-1 -13 -10 0 -9 13 -10 13 -10 0 0 -13 -1 -13 -10 0 -9 13 -10 13 -10 0 0 -10
-3 -11 -8 -4 -5 8 -12 6 -25 -6z"/>
<path d="M10184 11688 c3 -15 24 -18 48 -6 14 7 17 1 21 -39 l3 -48 2 48 c2
36 -2 49 -14 54 -9 3 -20 0 -25 -8 -7 -12 -9 -12 -9 1 0 12 -2 13 -9 1 -6 -9
-10 -10 -14 -2 -3 7 -5 7 -3 -1z"/>
<path d="M10253 10520 c0 -25 2 -35 4 -22 2 12 2 32 0 45 -2 12 -4 2 -4 -23z"/>
<path d="M4057 11680 c-25 -27 -52 -50 -60 -50 -7 0 -37 7 -67 16 -41 12 -59
13 -77 5 -27 -12 -53 -66 -53 -107 0 -28 -39 -70 -154 -168 -89 -75 -133 -189
-106 -271 26 -80 98 -133 206 -156 52 -11 73 -10 145 4 112 23 125 22 146 -9
15 -24 15 -43 -1 -312 -41 -692 -46 -783 -46 -882 0 -127 15 -163 80 -197 106
-56 281 -2 319 100 6 16 13 63 16 105 l4 77 72 11 c50 7 72 7 74 0 32 -106 85
-185 147 -215 54 -26 81 -26 133 -2 50 22 99 70 128 125 19 36 22 55 21 151
-3 248 -112 488 -287 626 -49 39 -161 100 -207 112 -14 4 -20 13 -20 34 0 15
-7 145 -15 287 -16 291 -21 265 61 339 79 70 80 142 5 174 -87 37 -86 35 -91
93 -8 79 -40 119 -96 120 -6 0 -26 -14 -44 -30 -48 -43 -77 -37 -110 20 -38
65 -63 65 -123 0z m109 -4 c24 -43 59 -67 83 -58 9 3 31 18 49 34 36 31 44 33
73 18 28 -16 49 -63 49 -114 0 -49 16 -67 71 -80 44 -10 72 -39 72 -74 0 -26
-13 -46 -68 -102 l-67 -71 4 -54 c5 -54 4 -55 -21 -55 -50 0 -97 -20 -131 -55
-29 -30 -34 -43 -38 -94 -3 -48 0 -69 18 -107 26 -52 89 -99 149 -110 44 -8
51 -18 51 -70 0 -39 2 -43 40 -58 43 -17 48 -27 26 -45 -29 -24 -56 -100 -56
-158 0 -103 60 -169 166 -181 59 -6 142 23 181 65 l32 34 15 -23 c76 -119 130
-393 103 -520 -8 -36 -10 -38 -48 -38 -28 0 -47 -7 -63 -23 -24 -24 -23 -24
-195 -14 -43 3 -46 5 -68 52 -12 28 -23 58 -23 67 0 26 -11 28 -96 15 l-79
-12 -5 -90 c-3 -49 -9 -96 -13 -102 -5 -7 -25 -13 -46 -13 -22 0 -48 -8 -62
-19 -13 -10 -46 -21 -74 -24 -42 -4 -54 -2 -78 19 -21 18 -41 24 -74 24 l-46
0 7 193 c4 105 9 217 12 247 l6 55 37 1 c48 2 111 35 144 74 15 17 34 55 44
86 14 47 15 63 5 112 -7 31 -24 75 -39 96 -29 41 -102 85 -140 86 -21 0 -23 4
-22 58 0 31 4 100 8 152 13 170 -5 192 -143 170 -116 -18 -201 -10 -266 26
-98 53 -128 151 -80 261 22 51 62 94 178 191 50 42 59 58 77 144 3 15 15 34
28 43 20 13 28 13 72 -1 47 -14 115 -12 115 4 0 17 72 83 87 80 10 -2 27 -21
39 -42z m268 -618 c3 -24 8 -98 11 -165 l6 -123 -31 0 c-41 0 -100 31 -127 67
-51 70 -54 157 -6 214 31 36 55 48 105 48 36 1 37 0 42 -41z m232 -524 c64
-45 139 -122 157 -161 31 -69 -143 -144 -244 -105 -37 15 -87 76 -95 117 -11
62 13 142 59 192 23 26 28 24 123 -43z m-524 14 c136 -76 129 -304 -12 -375
-44 -23 -95 -30 -103 -15 -6 12 19 397 27 411 9 14 35 7 88 -21z"/>
<path d="M3925 11396 c-27 -19 -13 -48 22 -44 31 3 44 35 21 49 -18 12 -21 11
-43 -5z"/>
<path d="M4046 11328 c-22 -31 -20 -45 9 -64 23 -15 27 -15 50 0 30 19 32 46
7 69 -25 23 -48 21 -66 -5z"/>
<path d="M3626 11209 c-31 -24 -32 -39 -8 -69 38 -47 162 -20 162 35 0 53
-101 76 -154 34z"/>
<path d="M13040 11685 c-195 -29 -361 -101 -510 -220 -430 -346 -525 -1014
-209 -1470 127 -185 322 -334 529 -404 181 -62 434 -89 672 -72 204 14 398 43
586 86 22 5 22 8 22 165 0 151 -1 160 -19 160 -11 0 -95 -9 -188 -20 -593 -69
-893 -43 -1099 98 -65 43 -150 127 -190 186 -111 162 -144 393 -89 610 14 54
25 100 25 102 0 2 367 4 815 4 448 0 815 1 815 3 0 2 -11 36 -25 76 -52 154
-122 266 -243 392 -235 246 -554 354 -892 304z m310 -55 c79 -13 207 -53 275
-88 193 -97 378 -290 462 -481 18 -42 33 -81 33 -88 0 -9 -184 -10 -793 -6
l-792 6 -22 -69 c-41 -132 -48 -178 -48 -314 0 -153 14 -219 71 -339 67 -142
196 -271 342 -342 203 -98 518 -117 1015 -59 93 11 173 20 178 20 6 0 9 -42 7
-107 l-3 -108 -110 -22 c-219 -43 -370 -58 -590 -57 -162 0 -233 4 -310 18
-373 69 -642 275 -788 602 -114 254 -114 564 0 834 138 324 426 549 768 600
76 11 232 11 305 0z"/>
<path d="M13086 11454 c-153 -34 -279 -107 -391 -225 -41 -45 -73 -85 -69 -90
6 -10 1234 -13 1234 -3 0 4 -17 29 -37 56 -78 106 -242 213 -388 253 -87 24
-264 28 -349 9z m308 -59 c114 -24 236 -88 321 -167 l40 -38 -509 0 -509 0 19
21 c36 40 134 110 191 136 130 60 304 78 447 48z"/>
<path d="M16292 9032 c-8 -6 -21 -93 -38 -261 l-26 -252 38 -34 c49 -43 71
-50 164 -50 62 1 84 6 127 28 83 43 134 105 148 180 6 32 3 40 -24 68 -31 31
-34 31 -99 27 -68 -6 -136 -31 -220 -83 l-43 -27 5 24 c3 13 13 99 21 191 13
132 14 171 5 182 -14 16 -38 19 -58 7z m331 -366 c9 -22 -31 -92 -66 -119 -74
-55 -161 -71 -210 -38 l-28 18 48 42 c94 81 241 137 256 97z"/>
<path d="M15202 8983 c-26 -48 -54 -225 -59 -368 -5 -143 -4 -151 17 -177 24
-31 51 -36 70 -13 10 12 10 21 1 41 -12 27 -15 138 -5 221 6 46 9 51 25 43 10
-6 54 -10 98 -10 87 0 170 -14 214 -36 20 -11 27 -22 27 -43 0 -59 -140 -154
-246 -167 -88 -10 -96 -13 -92 -37 3 -20 8 -22 73 -21 107 1 218 47 297 122
80 76 70 153 -24 197 -29 14 -67 28 -85 31 l-31 6 44 42 c47 45 53 68 28 104
-30 43 -98 63 -266 77 -67 5 -78 4 -86 -12z m202 -63 c79 -13 94 -26 64 -57
-33 -36 -94 -65 -165 -79 -52 -9 -63 -9 -63 2 0 14 19 111 25 132 5 14 58 16
139 2z"/>
<path d="M10715 8958 c-37 -20 -77 -63 -116 -122 l-39 -59 0 61 c0 33 -3 67
-6 76 -8 22 -70 22 -78 0 -11 -28 6 -458 18 -466 6 -4 21 -8 34 -8 27 0 32 11
62 138 45 191 119 322 180 322 61 0 157 -125 220 -285 37 -93 58 -120 89 -110
15 4 26 25 42 78 50 169 151 327 210 327 74 0 135 -184 127 -390 l-3 -95 32
-3 c41 -4 50 13 59 109 7 86 -9 209 -38 287 -34 92 -105 152 -177 152 -79 -1
-169 -84 -229 -212 -21 -43 -39 -77 -42 -77 -3 -1 -23 32 -45 72 -90 162 -219
250 -300 205z"/>
<path d="M13141 8956 c-16 -19 -48 -174 -62 -292 -13 -121 -5 -196 24 -230
l22 -25 180 21 c262 30 269 32 273 56 2 12 -3 24 -10 26 -7 3 -85 -3 -173 -13
-88 -10 -177 -18 -197 -19 l-38 0 0 93 c0 99 20 239 45 325 9 29 13 57 10 62
-9 15 -61 12 -74 -4z"/>
<path d="M12843 8860 c-26 -11 -28 -19 -11 -54 13 -31 40 -41 68 -26 25 14 25
30 -1 64 -22 28 -24 29 -56 16z"/>
<path d="M14595 8749 c-45 -13 -105 -67 -126 -113 -54 -120 8 -206 148 -206
107 0 175 33 140 68 -14 14 -22 14 -50 4 -41 -15 -121 -16 -148 -2 -33 18 -22
37 26 43 93 13 175 77 175 136 0 20 -4 41 -8 48 -19 29 -96 40 -157 22z m95
-63 c0 -23 -49 -64 -97 -80 -26 -9 -48 -14 -51 -11 -7 6 23 50 55 80 31 28 93
36 93 11z"/>
<path d="M11841 8734 c-58 -21 -87 -39 -139 -88 -53 -50 -72 -84 -72 -130 0
-89 122 -88 247 3 l41 29 11 -59 c15 -74 49 -99 85 -63 12 12 14 20 5 36 -6
11 -13 62 -16 114 -4 57 -11 98 -19 104 -16 14 -64 2 -64 -16 0 -32 -157 -154
-197 -154 -24 0 -13 36 23 78 44 52 108 90 165 100 38 7 44 11 44 32 0 21 -5
25 -35 27 -19 2 -55 -5 -79 -13z"/>
<path d="M13745 8736 c-78 -33 -137 -111 -137 -182 0 -75 54 -114 156 -114
170 0 297 141 208 230 -31 31 -101 55 -132 45 -10 -3 -21 -1 -25 5 -14 22 -40
28 -70 16z m162 -98 c17 -14 16 -59 -2 -84 -22 -32 -77 -54 -137 -54 -59 0
-78 12 -78 47 0 33 28 85 43 80 7 -2 35 4 62 15 49 17 88 16 112 -4z"/>
<path d="M15933 8731 c-29 -11 -65 -28 -81 -40 -49 -34 -109 -106 -122 -145
-11 -34 -10 -41 7 -65 36 -48 111 -40 217 24 32 19 60 35 62 35 2 0 6 -17 9
-37 11 -62 15 -72 36 -84 11 -5 29 -7 40 -4 19 6 20 12 14 49 -4 22 -10 79
-14 126 -5 71 -9 86 -26 95 -12 6 -20 20 -20 35 0 21 -5 25 -35 27 -19 2 -59
-6 -87 -16z m77 -83 c-45 -63 -152 -138 -195 -138 -13 0 -13 5 4 38 34 67 138
141 199 142 22 0 22 -1 -8 -42z"/>
<path d="M14064 8706 c-11 -30 92 -238 127 -257 22 -11 59 -3 59 13 0 19 110
177 131 188 25 14 25 47 -1 55 -31 10 -73 -19 -120 -84 -25 -34 -47 -61 -51
-61 -3 0 -22 36 -42 80 -34 75 -38 80 -67 80 -17 0 -33 -6 -36 -14z"/>
<path d="M16782 8698 c-39 -39 11 -192 77 -235 65 -44 158 -27 229 40 l32 31
0 -62 c0 -116 -67 -230 -138 -233 -46 -2 -77 2 -86 12 -16 15 -66 10 -73 -6
-8 -22 24 -54 61 -60 65 -11 81 -12 125 -2 44 9 100 42 129 77 27 31 61 117
67 170 7 63 -11 228 -27 248 -14 17 -59 12 -68 -8 -4 -8 -14 -28 -21 -45 -8
-16 -35 -51 -60 -77 -57 -61 -95 -65 -133 -15 -28 37 -50 109 -41 137 10 31
-48 53 -73 28z"/>
<path d="M12852 8683 c-14 -28 3 -171 24 -194 25 -27 80 -23 77 6 -2 11 -8 61
-15 110 l-13 90 -32 3 c-23 2 -34 -2 -41 -15z"/>
<path d="M12152 8658 c-5 -7 -13 -56 -17 -109 -5 -80 -4 -97 9 -108 27 -22 59
-5 89 48 29 52 79 101 102 101 21 0 34 -30 41 -95 4 -33 13 -59 21 -62 27 -10
58 7 78 42 23 43 92 115 110 115 16 0 41 -52 50 -103 8 -42 30 -59 65 -50 21
6 22 10 17 61 -8 73 -48 133 -99 146 -47 12 -77 3 -131 -38 l-44 -34 -16 28
c-32 54 -114 63 -170 20 -33 -26 -37 -25 -37 9 0 38 -45 57 -68 29z"/>
<path d="M17414 5541 c-11 -11 9 -16 50 -13 25 2 43 8 40 13 -5 9 -81 9 -90 0z"/>
<path d="M12170 5445 c0 -8 7 -15 15 -15 8 0 15 7 15 15 0 8 -7 15 -15 15 -8
0 -15 -7 -15 -15z"/>
<path d="M5340 5220 c0 -15 153 -16 175 -2 17 11 6 13 -77 11 -54 -1 -98 -5
-98 -9z"/>
<path d="M4765 5193 c-22 -4 -53 -43 -35 -43 5 0 10 4 10 9 0 5 13 12 30 16
16 4 32 11 35 16 6 9 -3 10 -40 2z"/>
<path d="M4463 4193 c9 -2 23 -2 30 0 6 3 -1 5 -18 5 -16 0 -22 -2 -12 -5z"/>
<path d="M16913 3401 c-74 -7 -94 -21 -31 -21 58 0 108 10 108 21 0 5 -3 8 -7
7 -5 0 -36 -4 -70 -7z"/>
<path d="M16765 3380 c3 -5 8 -10 11 -10 2 0 4 5 4 10 0 6 -5 10 -11 10 -5 0
-7 -4 -4 -10z"/>
<path d="M16605 3370 c-4 -6 7 -10 24 -10 17 0 31 5 31 10 0 6 -11 10 -24 10
-14 0 -28 -4 -31 -10z"/>
<path d="M16468 3363 c-16 -2 -28 -8 -28 -13 0 -5 12 -7 28 -6 15 2 37 4 50 5
12 0 22 6 22 11 0 10 -20 11 -72 3z"/>
<path d="M15895 3335 c-13 -9 -67 -16 -163 -21 -133 -7 -175 -16 -137 -30 8
-4 37 -1 63 6 26 6 133 16 237 21 105 4 204 13 220 19 22 7 4 8 -71 4 -68 -4
-104 -2 -109 5 -8 14 -15 13 -40 -4z"/>
<path d="M16218 3343 c7 -3 16 -2 19 1 4 3 -2 6 -13 5 -11 0 -14 -3 -6 -6z"/>
<path d="M0 2642 c0 -547 3 -703 13 -714 26 -27 67 -96 97 -160 29 -61 50 -86
50 -58 0 6 18 35 39 64 130 175 309 280 525 307 189 23 368 -22 541 -138 60
-40 70 -41 51 -5 -47 91 -53 314 -13 457 35 126 105 257 170 316 l28 26 -44
59 c-168 227 -442 351 -699 317 -205 -28 -369 -122 -466 -268 l-29 -44 -22
102 c-26 122 -91 264 -162 353 -27 34 -55 67 -64 74 -13 11 -15 -60 -15 -688z"/>
<path d="M6460 3260 c-11 -7 -7 -10 18 -10 17 0 32 5 32 10 0 13 -30 13 -50 0z"/>
<path d="M6365 3250 c3 -5 13 -10 21 -10 8 0 14 5 14 10 0 6 -9 10 -21 10 -11
0 -17 -4 -14 -10z"/>
<path d="M14408 3173 c7 -3 16 -2 19 1 4 3 -2 6 -13 5 -11 0 -14 -3 -6 -6z"/>
<path d="M13590 3130 l-25 -8 25 -1 c14 0 32 4 40 9 13 9 13 10 0 9 -8 -1 -26
-5 -40 -9z"/>
<path d="M12760 3090 c0 -5 7 -10 15 -10 8 0 15 5 15 10 0 6 -7 10 -15 10 -8
0 -15 -4 -15 -10z"/>
<path d="M11693 3023 c9 -2 23 -2 30 0 6 3 -1 5 -18 5 -16 0 -22 -2 -12 -5z"/>
<path d="M1998 2953 c18 -2 45 -2 60 0 15 2 0 4 -33 4 -33 0 -45 -2 -27 -4z"/>
<path d="M10298 2953 c6 -2 18 -2 25 0 6 3 1 5 -13 5 -14 0 -19 -2 -12 -5z"/>
<path d="M1898 2943 c7 -3 16 -2 19 1 4 3 -2 6 -13 5 -11 0 -14 -3 -6 -6z"/>
<path d="M2168 2943 c7 -3 16 -2 19 1 4 3 -2 6 -13 5 -11 0 -14 -3 -6 -6z"/>
<path d="M9705 2930 c-3 -5 -1 -10 4 -10 6 0 11 5 11 10 0 6 -2 10 -4 10 -3 0
-8 -4 -11 -10z"/>
<path d="M1795 2920 c-13 -6 -15 -9 -5 -9 8 0 22 4 30 9 18 12 2 12 -25 0z"/>
<path d="M2260 2920 c8 -5 22 -10 30 -10 13 0 13 1 0 10 -8 5 -22 10 -30 10
-13 0 -13 -1 0 -10z"/>
<path d="M9598 2923 c6 -2 18 -2 25 0 6 3 1 5 -13 5 -14 0 -19 -2 -12 -5z"/>
<path d="M9180 2916 c0 -2 7 -6 15 -10 8 -3 15 -1 15 4 0 6 -7 10 -15 10 -8 0
-15 -2 -15 -4z"/>
<path d="M1733 2900 c-30 -12 -29 -18 1 -16 13 0 22 4 20 8 -2 3 2 9 8 11 7 3
9 5 3 6 -5 0 -20 -4 -32 -9z"/>
<path d="M8485 2890 c-18 -8 -17 -9 8 -9 16 -1 26 3 22 9 -3 6 -7 10 -8 9 -1
0 -11 -4 -22 -9z"/>
<path d="M8390 2886 c0 -9 30 -14 35 -6 4 6 -3 10 -14 10 -12 0 -21 -2 -21 -4z"/>
<path d="M1640 2850 c-13 -9 -13 -10 0 -10 8 0 22 5 30 10 13 9 13 10 0 10 -8
0 -22 -5 -30 -10z"/>
<path d="M2420 2850 c8 -5 20 -10 25 -10 6 0 3 5 -5 10 -8 5 -19 10 -25 10 -5
0 -3 -5 5 -10z"/>
<path d="M1553 2784 c-21 -20 -29 -31 -18 -26 11 6 28 20 38 32 10 11 23 18
29 14 7 -4 8 -3 4 4 -10 16 -10 16 -53 -24z"/>
<path d="M2474 2808 c-4 -7 -4 -10 1 -6 4 4 17 2 29 -4 19 -10 20 -10 7 5 -16
20 -27 21 -37 5z"/>
<path d="M2502 2764 c10 -10 20 -15 24 -12 3 4 -5 12 -18 18 -22 12 -22 12 -6
-6z"/>
<path d="M2550 2760 c0 -5 5 -10 11 -10 5 0 7 5 4 10 -3 6 -8 10 -11 10 -2 0
-4 -4 -4 -10z"/>
<path d="M5878 2243 c6 -2 18 -2 25 0 6 3 1 5 -13 5 -14 0 -19 -2 -12 -5z"/>
<path d="M6028 2213 c7 -3 16 -2 19 1 4 3 -2 6 -13 5 -11 0 -14 -3 -6 -6z"/>
<path d="M6080 2197 c14 -8 36 -17 50 -21 l25 -7 -25 14 c-14 8 -36 17 -50 21
l-25 7 25 -14z"/>
<path d="M6180 2151 c24 -20 40 -26 40 -16 0 2 -15 12 -32 20 l-33 16 25 -20z"/>
<path d="M6230 2096 c0 -2 8 -10 18 -17 15 -13 16 -12 3 4 -13 16 -21 21 -21
13z"/>
<path d="M6290 2072 c0 -7 6 -15 14 -18 8 -3 14 -11 12 -17 -1 -7 -1 -8 2 -3
3 5 20 -9 39 -30 19 -21 30 -30 24 -19 -13 28 -91 102 -91 87z"/>
<path d="M6404 1940 c0 -13 4 -16 10 -10 7 7 7 13 0 20 -6 6 -10 3 -10 -10z"/>
<path d="M6683 1933 c9 -2 23 -2 30 0 6 3 -1 5 -18 5 -16 0 -22 -2 -12 -5z"/>
<path d="M6628 1923 c7 -3 16 -2 19 1 4 3 -2 6 -13 5 -11 0 -14 -3 -6 -6z"/>
<path d="M6898 1923 c7 -3 16 -2 19 1 4 3 -2 6 -13 5 -11 0 -14 -3 -6 -6z"/>
<path d="M6980 1895 c14 -8 30 -14 35 -14 6 0 -1 6 -15 14 -14 8 -29 14 -35
14 -5 0 1 -6 15 -14z"/>
<path d="M6445 1865 c0 -13 3 -21 8 -18 4 2 7 10 7 18 0 8 -3 16 -7 18 -5 3
-8 -5 -8 -18z"/>
<path d="M6516 1875 c-11 -8 -16 -15 -10 -15 5 0 18 7 28 15 11 8 16 15 10 15
-5 0 -18 -7 -28 -15z"/>
<path d="M7030 1875 c0 -6 56 -35 67 -35 4 0 -7 9 -25 20 -33 20 -42 24 -42
15z"/>
<path d="M1935 1803 c-40 -5 -131 -41 -178 -70 -48 -30 -118 -103 -143 -148
-21 -40 -26 -42 -62 -16 -49 34 -118 58 -186 66 -120 12 -236 -44 -317 -155
-47 -65 -75 -169 -48 -185 21 -14 57 5 64 32 4 16 6 28 4 28 -10 0 48 90 77
119 58 58 108 79 189 80 84 1 158 -31 218 -92 48 -49 69 -46 95 16 37 89 138
201 180 202 6 0 12 4 12 8 0 14 115 42 170 42 80 -1 123 -13 202 -59 78 -45
90 -48 108 -26 22 26 -3 60 -72 98 -106 59 -193 76 -313 60z"/>
<path d="M7150 1802 c0 -12 19 -26 26 -19 2 2 -2 10 -11 17 -9 8 -15 8 -15 2z"/>
<path d="M7190 1776 c0 -2 8 -10 18 -17 15 -13 16 -12 3 4 -13 16 -21 21 -21
13z"/>
<path d="M7312 1610 c7 -10 14 -18 15 -16 6 6 -9 36 -18 36 -5 0 -4 -9 3 -20z"/>
<path d="M7336 1567 c3 -10 9 -15 12 -12 3 3 0 11 -7 18 -10 9 -11 8 -5 -6z"/>
<path d="M5580 1551 c-107 -33 -189 -118 -204 -213 -5 -31 -2 -39 14 -48 34
-18 56 -3 70 45 21 76 106 145 178 145 66 0 153 -61 175 -123 5 -14 15 -17 39
-15 29 3 33 7 36 37 5 46 18 57 86 71 103 21 213 -2 304 -63 48 -32 121 -106
122 -122 0 -6 9 -16 20 -23 16 -10 24 -10 40 0 26 17 25 30 -4 76 -69 109
-178 179 -325 210 -75 15 -86 15 -161 0 -44 -9 -92 -26 -107 -37 l-26 -21 -22
20 c-30 28 -138 70 -177 69 -18 0 -44 -4 -58 -8z"/>
<path d="M7316 1545 c-9 -26 -7 -32 5 -12 6 10 9 21 6 23 -2 3 -7 -2 -11 -11z"/>
<path d="M7350 1535 c0 -5 5 -17 10 -25 5 -8 10 -10 10 -5 0 6 -5 17 -10 25
-5 8 -10 11 -10 5z"/>
<path d="M7373 1458 c1 -16 5 -28 9 -28 10 0 9 9 -2 35 -8 17 -8 16 -7 -7z"/>
<path d="M7392 1380 c0 -14 2 -19 5 -12 2 6 2 18 0 25 -3 6 -5 1 -5 -13z"/>
<path d="M7402 1305 c0 -16 2 -22 5 -12 2 9 2 23 0 30 -3 6 -5 -1 -5 -18z"/>
<path d="M7413 1215 c0 -27 2 -38 4 -22 2 15 2 37 0 50 -2 12 -4 0 -4 -28z"/>
<path d="M2222 1200 c-29 -11 -64 -28 -79 -40 -41 -32 -84 -96 -90 -133 -4
-29 -2 -35 17 -40 31 -8 43 -1 60 36 8 18 21 31 28 29 9 -2 12 4 8 15 -5 14 7
24 52 46 99 46 186 33 256 -39 36 -37 66 -91 66 -117 0 -18 30 -30 51 -22 8 3
22 23 32 45 20 43 71 73 143 85 66 10 201 -52 275 -126 14 -14 28 -19 42 -15
12 3 25 6 30 6 4 0 7 10 7 23 0 27 -110 118 -180 150 -25 11 -55 25 -68 31
-65 29 -221 -1 -269 -53 l-19 -21 -32 43 c-40 52 -83 82 -147 102 -65 19 -118
18 -183 -5z"/>
<path d="M7402 1085 c0 -16 2 -22 5 -12 2 9 2 23 0 30 -3 6 -5 -1 -5 -18z"/>
<path d="M6395 516 c-101 -32 -215 -106 -215 -139 0 -58 44 -63 99 -9 57 55
153 87 258 86 46 -1 98 -7 115 -15 54 -21 140 -79 175 -118 36 -39 93 -150 93
-179 0 -25 31 -51 50 -43 8 3 35 20 59 36 42 28 50 30 140 30 81 0 100 -3 120
-20 48 -40 76 -72 96 -108 18 -34 23 -37 63 -37 24 0 42 3 40 8 -3 4 -10 22
-17 40 -7 17 -17 32 -22 32 -5 0 -9 7 -9 15 0 21 -80 98 -124 119 -63 30 -147
39 -225 26 -39 -6 -73 -16 -77 -21 -9 -15 -34 -10 -34 6 0 8 -4 15 -10 15 -5
0 -10 6 -10 14 0 49 -118 182 -193 218 -95 47 -143 58 -240 57 -51 0 -110 -6
-132 -13z"/>
<path d="M4408 473 c7 -3 16 -2 19 1 4 3 -2 6 -13 5 -11 0 -14 -3 -6 -6z"/>
<path d="M4778 443 c7 -3 16 -2 19 1 4 3 -2 6 -13 5 -11 0 -14 -3 -6 -6z"/>
<path d="M786 432 c-3 -5 1 -9 9 -9 8 0 12 4 9 9 -3 4 -7 8 -9 8 -2 0 -6 -4
-9 -8z"/>
<path d="M3838 393 c7 -3 16 -2 19 1 4 3 -2 6 -13 5 -11 0 -14 -3 -6 -6z"/>
<path d="M8086 170 c7 -8 14 -24 17 -35 4 -19 5 -19 6 1 0 12 -7 28 -16 35
-16 12 -17 12 -7 -1z"/>
<path d="M8086 64 c-4 -14 -5 -28 -3 -31 3 -2 8 8 11 23 4 14 5 28 3 31 -3 2
-8 -8 -11 -23z"/>
</g>
</svg>
